<?xml version="1.0" encoding="UTF-8" standalone="no"?>
<!-- Created with Inkscape (http://www.inkscape.org/) -->

<svg
   xmlns:dc="http://purl.org/dc/elements/1.1/"
   xmlns:cc="http://creativecommons.org/ns#"
   xmlns:rdf="http://www.w3.org/1999/02/22-rdf-syntax-ns#"
   xmlns:svg="http://www.w3.org/2000/svg"
   xmlns="http://www.w3.org/2000/svg"
   version="1.1"
   width="990"
   height="765"
   id="svg2985"
   xml:space="preserve"><metadata
     id="metadata2991"><rdf:RDF><cc:Work
         rdf:about=""><dc:format>image/svg+xml</dc:format><dc:type
           rdf:resource="http://purl.org/dc/dcmitype/StillImage" /><dc:title></dc:title></cc:Work></rdf:RDF></metadata><defs
     id="defs2989" /><g
     transform="matrix(1.25,0,0,-1.25,0,765)"
     id="g2993"><g
       id="g2995"><path
         d="m 367.64951,197.11804 c -9.12579,0.54737 -18.22184,1.25191 -27.37648,1.2377 -3.31087,0.38573 -6.71349,0.48037 -9.82809,1.72788 -2.02745,0.39942 -4.03665,1.03463 -5.86989,1.98522 -1.93298,1.0678 -3.58257,2.71335 -4.77842,4.64694 -1.20209,1.70986 -2.90452,3.1305 -3.44432,5.20566 -0.68339,3.18773 -1.34618,6.40135 -2.15679,9.57074 -0.72039,2.55579 -0.89118,5.16737 -1.80141,7.67129 -0.41483,1.61755 -1.01899,3.39041 -2.24257,4.41161 -5.26747,0.74744 -10.7361,-0.0145 -16.00433,0.64949 -1.61503,0.83397 -1.2831,3.14155 -1.29897,4.6567 0.48101,4.38896 1.23276,9.01564 0.28185,13.30835 0.2945,1.33605 -1.12719,2.9531 0.0858,4.03172 0.38308,5.85581 1.48435,11.64894 1.3725,17.5484 0.44563,6.72356 0.37812,13.47472 0.22058,20.19536 0.69001,15.68919 0.5532,31.48684 -0.47792,47.16745 -1.51893,12.13127 -0.34069,24.81118 -4.39936,36.48156 -1.2368,3.92487 -5.38578,5.74337 -9.09281,6.56839 -3.9661,1.97842 -7.96989,3.92117 -12.20545,5.33069 -4.53549,2.33754 -8.41792,6.9286 -8.19824,12.27898 -0.52864,1.09043 0.0658,2.62634 1.38475,2.73275 2.93603,1.76498 6.41948,0.24582 9.37467,-0.674 3.94492,-1.48226 8.11465,-2.32984 11.97261,-4.12975 4.03129,-1.2217 7.8107,-3.20071 11.58048,-5.11012 3.73741,-2.16919 6.99482,-5.21337 9.05605,-9.04379 2.13544,-4.94206 2.07744,-10.32561 2.89205,-15.55092 0.96083,-7.20564 1.31004,-14.52321 2.29001,-21.70109 1.01734,-13.34197 1.74162,-26.68994 2.27499,-40.05873 0.36021,-4.70681 0.70378,-9.6494 0.98628,-14.23014 1.11029,-0.36213 1.09512,-2.05081 -0.098,-2.25483 0.36611,-11.52662 0.0434,-23.05484 0.0858,-34.58211 9.24787,-0.4848 18.4692,0.77426 27.70736,0.30636 7.86714,0.22573 15.75468,0.54744 23.61436,0.41666 6.21707,-0.51873 12.65212,0.2245 18.71257,-1.29898 3.53911,-1.22126 7.76524,-3.35174 11.20059,-0.75977 4.02921,3.07331 9.54476,2.08773 14.30096,2.62245 10.45648,0.35968 20.96075,0.1397 31.42046,-0.28185 5.88765,-0.77932 11.83876,-0.93452 17.74276,-1.61982 5.83988,-0.3749 11.64211,-1.20508 17.51334,-0.75755 0.84407,0.12345 0.40308,1.9808 0.85782,2.745 0.50058,3.61426 0.96673,7.30379 2.34599,10.77225 2.2523,5.29058 2.74915,10.98902 3.33063,16.62531 1.83565,11.59959 1.20461,23.43778 2.31071,35.12462 0.27292,6.96058 0.51388,13.9579 1.39959,20.85723 1.55612,10.4352 2.9803,20.95845 5.91194,31.11718 1.98753,5.69966 3.89117,11.81744 8.22972,16.19732 3.64962,3.65412 8.06636,6.41085 12.57054,8.91509 4.47457,2.99922 9.93513,3.55854 14.85496,5.49617 2.53887,0.71015 5.41219,1.37263 7.80609,0.11029 1.51865,0.82549 2.15501,-1.36405 1.47054,-2.43864 -1.20053,-4.67419 -3.44755,-9.47013 -7.9654,-11.73978 -3.85609,-3.11307 -9.4729,-3.18126 -12.83043,-7.00956 -4.24926,-3.23652 -6.87519,-8.08806 -9.33791,-12.6221 -1.94922,-4.31971 -3.85817,-8.69442 -4.13615,-13.53052 -1.60349,-11.10685 -3.06947,-22.21186 -2.78762,-33.55115 -0.0792,-14.56905 0.29644,-29.14864 -0.049,-43.71169 -0.80329,-8.17333 -0.78411,-16.49659 -1.24795,-24.72938 -0.10564,-6.70798 -0.60807,-13.42003 -0.83531,-20.10972 -0.48328,-2.08157 -2.87381,-2.00102 -4.50964,-1.58083 -5.05395,-0.1676 -10.04168,-0.70071 -15.12202,-0.55145 -1.40672,-0.34305 -3.60965,-0.14602 -3.4666,-2.28478 -1.16561,-6.83067 -3.23321,-13.44635 -6.42275,-19.58944 -1.38352,-3.68397 -3.27451,-7.40492 -6.04146,-10.23249 -1.34746,-1.19803 -3.26965,-1.15967 -4.86502,-1.82591 -2.30057,-0.42453 -4.6885,0.0811 -6.98505,-0.50243 -11.81128,0.13704 -23.63846,1.38872 -35.47551,1.79536 -1.71317,-0.14927 -3.26353,0.26043 -4.62111,1.23149 -1.8363,1.07969 -2.56796,3.02288 -3.7131,4.68121 -2.60468,4.45914 -2.991,9.86271 -5.0611,14.59507 -0.91666,3.36605 -2.91044,6.28901 -4.46063,9.37467 -1.30577,1.43333 -2.51422,3.04597 -4.15426,4.08073 -2.44189,-2.46737 -4.75344,-5.21039 -5.8066,-8.653 -2.51685,-6.8589 -4.87899,-13.80588 -8.37182,-20.21852 -1.72767,-2.39668 -3.88157,-4.36288 -6.0292,-6.31105 -1.17687,-0.44469 -2.26706,-1.37603 -3.59056,-1.22545 z m -0.35538,2.18129 c 3.3887,-0.0568 5.2129,3.46881 7.47523,5.44099 2.22112,2.84597 3.1856,6.42582 4.84051,9.6075 1.67607,4.58119 3.35479,9.18443 5.22041,13.73726 1.14472,2.98611 3.76639,5.06717 5.53902,7.51199 0.21253,1.55032 2.27839,0.83197 2.30384,-0.36763 2.724,-2.01387 4.98635,-4.6231 6.33556,-7.8061 1.53175,-2.53313 2.58648,-5.26714 3.49252,-8.01442 1.81819,-4.93037 2.45283,-10.47636 5.61255,-14.72987 1.09442,-2.23285 3.58685,-3.31577 6.01694,-2.96559 11.71337,-0.50725 23.40298,-1.68782 35.12131,-1.82591 2.22389,0.64227 4.63172,0.0613 6.82574,0.63723 1.49931,0.71814 3.46476,0.58068 4.35033,2.29159 1.80066,2.52486 3.54438,5.34135 4.55764,8.42222 3.06927,5.91954 5.14539,12.38751 6.26306,19.04004 0.7079,1.15951 0.0826,3.86675 2.09551,3.76212 -1.26286,1.10665 0.33092,3.97454 1.67887,2.29159 0.51419,-0.71279 -0.38912,-2.01827 -0.12255,-2.25482 3.81321,0.59042 7.68915,0.17486 11.5192,0.64948 1.88117,0.18029 4.50955,0.21647 5.98018,0.4044 -0.29131,0.65768 -2.29449,1.16045 -1.81366,2.42638 -0.86969,0.13051 -1.84302,0.97586 -1.55632,1.93621 -1.10962,-0.36419 -2.22316,1.46045 -1.92395,2.0465 -1.49624,-0.27037 -2.76212,1.94429 -1.00487,2.54893 1.16884,0.31419 1.8654,-1.46543 1.70338,-2.0465 1.16262,0.48471 2.0108,-1.06086 1.81366,-1.88719 1.30114,0.56966 1.9076,-1.21236 2.08326,-1.89944 1.16289,0.21234 1.07812,-1.64809 1.67886,-1.62985 1.42605,-0.63047 0.87383,0.70276 1.01712,1.83818 0.0673,4.39275 0.70328,9.04747 0.52694,13.25933 -1.52759,0.13106 -1.54185,2.61529 0.14706,2.35286 0.47192,9.06349 0.70376,18.22211 1.33393,27.26605 0.29109,17.60285 -0.31124,35.2202 0.18562,52.8169 0.80883,9.44963 1.83246,18.85937 3.62732,28.18528 2.46102,7.32611 5.96471,14.47424 11.21284,20.19536 2.1365,1.76656 3.85283,4.08598 6.62923,4.93371 2.914,1.21837 6.00822,2.14691 8.57857,4.01205 2.60957,1.40609 4.38952,3.83125 5.47774,6.50713 0.31071,1.23852 1.58023,2.70439 0.20833,3.59056 -1.23225,1.46138 -3.56844,0.13476 -5.14688,0.0858 -4.24364,-1.52718 -8.69997,-2.40241 -12.80981,-4.28789 -4.8021,-2.69556 -9.6795,-5.28483 -13.6012,-9.27811 -4.70525,-4.42066 -6.5235,-10.8038 -8.51422,-16.75156 -1.8752,-6.90711 -3.02564,-14.01246 -4.20829,-21.09539 -1.79353,-10.1109 -2.47609,-20.34961 -2.75225,-30.61846 -1.00765,-12.14337 -0.58941,-24.42894 -2.53668,-36.45705 -0.299,-5.45108 -1.52697,-10.73265 -3.54154,-15.78375 -1.19626,-4.00144 -1.36888,-8.32176 -2.36511,-12.26673 1.17026,0.23894 2.07656,-0.82634 1.54406,-1.72788 1.06719,-2.12958 -2.91066,-1.96088 -2.4754,-0.0123 -0.90344,0.68249 0.28067,-1.69262 -0.9681,-1.74014 -1.1398,-0.33522 -1.61319,1.32747 -1.82592,1.81367 -4.06243,0.26657 -8.35446,0.26093 -12.31574,0.72301 -0.13178,-1.54862 -2.63195,-1.36144 -2.32835,0.23283 -7.33607,0.50369 -14.57985,1.09359 -21.87405,1.80086 -8.59933,0.36251 -17.18408,0.3912 -25.78358,0.33142 -5.15826,-0.76865 -10.75627,0.45415 -15.52641,-1.94846 -1.50282,-0.89032 -2.89708,-2.58138 -4.86502,-2.16904 -4.45941,-0.27178 -8.14604,2.73789 -12.52077,2.84474 -6.22475,0.57448 -12.58394,0.47908 -18.86293,0.68455 -7.0186,-0.21725 -14.03726,-0.25563 -21.05315,-0.4846 -6.4832,0.10372 -13.13148,-0.14738 -19.49688,-0.67958 -1.5446,0.38115 -3.53868,0.26002 -4.96306,0.0858 -0.50557,-0.85636 -1.51432,-0.94244 -1.12741,-2.10777 0.80058,-0.38948 1.02429,-2.10107 -0.0245,-2.37736 1.25676,-0.50684 0.13128,-2.11855 -0.25735,-2.29159 1.21046,-0.37207 0.39774,-1.99296 0,-2.24257 1.62124,-0.0226 0.9617,-2.33432 0.049,-2.45089 1.34484,-0.0569 0.83123,-1.84711 0.30636,-2.23031 1.04449,-0.50304 0.33786,-2.10883 -0.17156,-2.36511 1.22929,-0.7712 0.0749,-2.2674 1.01712,-3.06362 0.4046,-0.88712 -0.13726,-1.49785 0.674,-2.14453 0.13984,-0.86991 -0.79025,-1.39075 -0.0613,-2.20581 1.52572,-4.47182 1.91224,-9.17821 3.29645,-13.71275 0.67249,-3.06633 0.85529,-6.43125 3.38223,-8.6394 1.38766,-1.44061 2.10562,-3.45409 3.89692,-4.46063 2.87282,-2.09113 6.61543,-2.50045 9.97514,-3.48026 7.48931,-1.5507 15.20478,-0.32983 22.77961,-1.28525 3.34091,-0.18906 6.68118,-0.41542 10.0256,-0.52842 z m 111.16029,52.9148 c 0.53594,0.49239 1.32507,0.0735 0.49017,0.84556 -0.71492,1.71088 1.83688,2.03171 2.41414,1.01712 0.75235,0.5709 1.92443,-0.2674 2.27933,-0.31862 0.51082,1.1642 2.15487,0.1923 2.37736,-0.20832 0.78845,1.81997 3.70771,-0.16124 1.85043,-1.31123 -0.72809,-0.764 -1.83126,0.31718 -1.92395,0.63723 -0.38225,-1.15077 -2.15533,-0.82402 -2.4509,-0.19607 -0.61804,-0.94952 -2.24165,-0.71127 -2.57344,0.0735 -0.44193,-0.50037 -1.57872,-0.16198 -0.66174,-0.77204 1.21482,-1.2495 -0.93167,-2.63686 -1.86268,-1.33573 -0.4189,0.41392 -0.33662,1.17427 0.0613,1.56857 z M 357.14743,202.63255 c -0.79826,0.92439 -1.5248,0.58385 -2.54893,0.55145 -2.86083,0.338 -5.99546,-0.34164 -8.95801,-0.11029 -5.90565,0.11119 -12.0422,0.82528 -17.4136,3.32096 -3.9204,1.72752 -6.34496,5.59374 -7.74483,9.49721 -2.00281,3.5256 -2.00177,7.75459 -2.64696,11.62949 -0.83019,6.54008 -0.78038,13.18078 -0.674,19.79097 -0.14444,1.14967 -0.55339,2.50809 0.8333,2.85529 2.72161,1.87682 6.15448,1.96889 9.38693,1.87494 -1.03426,1.66311 2.06263,2.33239 2.00973,0.44116 -0.0528,-0.97698 2.27632,-0.075 3.16165,-0.4044 5.24431,-0.4738 10.28847,0.22931 15.48965,0.62498 6.34569,0.2794 12.80525,-0.28399 19.01894,-1.0784 4.69164,1.12733 9.69656,-0.97505 12.90395,-4.35033 2.91991,-3.22967 3.55152,-7.88948 2.77561,-12.14298 -0.10564,-2.47798 -1.12099,-4.76848 -1.62369,-7.14556 -0.65547,-1.55342 -1.37296,-3.1844 -1.36024,-4.9508 -0.82464,-3.27062 -1.749,-6.6532 -3.46802,-9.66878 -0.85476,-1.81931 -2.48411,-3.11891 -3.43125,-4.86502 -1.30583,-1.48675 -3.09064,-2.75081 -5.10944,-3.32887 -2.01015,-0.7172 -0.43273,-1.31256 -3.28487,-1.43812 -1.50023,0.45225 -2.98347,0.0159 -4.31357,-0.62498 -1.15236,0.1293 -1.92225,-0.53028 -3.00235,-0.47792 z m 79.94815,1.29897 c -6.20915,0.0486 -12.47004,-0.0356 -18.57777,1.05389 -4.1985,-0.1437 -7.4389,3.0345 -9.71779,6.17625 -3.18362,5.82445 -3.738,12.75999 -6.29932,18.90907 -1.83189,4.41348 -1.80962,9.30286 -2.08274,14.00643 0.34635,2.78824 1.72743,5.91757 4.44837,7.03407 4.50287,0.46771 8.87744,1.80306 13.49213,1.41351 5.23065,-0.16382 10.57966,0.0408 15.71027,-0.29836 1.12996,-0.0996 2.24477,-0.0613 3.33322,-0.17156 1.21207,0.1129 2.32166,-0.23169 3.50477,0.0735 1.51229,-0.69426 3.51531,0.43974 4.81601,-0.5392 3.39363,-0.0146 6.83098,-0.33585 10.24474,-0.6985 3.21638,-0.65344 6.73105,-1.19711 9.4727,-3.08813 1.43693,-1.39318 2.43806,-3.51895 1.99748,-5.47775 1.24327,-3.58944 1.6976,-7.77179 0.24509,-11.35989 -0.38484,-3.66203 -0.52635,-7.37593 -1.74014,-10.88197 -0.81205,-2.80913 -1.75387,-5.51829 -3.34547,-7.90413 -0.74354,-1.63551 -1.4059,-3.49574 -2.84303,-4.63219 -1.4847,-0.79571 -2.99263,-1.80636 -4.73023,-2.25482 -2.01155,-1.44457 -4.53619,-0.95885 -6.85025,-0.74752 -3.64667,-0.33744 -7.52018,-0.70494 -11.07804,-0.61273 z m -67.2035,3.10038 c -1.48713,-0.022 -0.29846,-1.43855 0,0 z m -58.64989,28.41812 c 0.58858,1.00391 -0.5639,1.5194 -0.62498,2.65922 0.74205,0.18806 1.0151,0.89294 0.37989,1.40926 -0.242,0.83089 0.18404,1.3867 -0.61272,1.92395 -0.31923,0.97206 0.73402,1.80951 1.62984,1.97297 -1.12067,0.0974 -1.39159,1.87514 -0.4289,2.35286 -1.39527,0.10857 -1.09201,2.24393 -0.2696,2.45089 -1.09027,0.51288 -0.42544,2.25037 0.28185,2.32835 -0.97163,0.29867 -0.0417,2.2514 -1.33574,1.36025 -1.00813,0.0861 -0.6501,-2.01406 -2.05875,-1.66661 -1.48276,0.37554 -0.72814,2.49814 0.62498,2.3406 -0.46008,1.12671 1.18336,1.31092 1.5073,1.67887 0.0754,0.44414 -1.17524,1.16036 -0.4289,1.96071 0.84718,1.35497 -0.0814,3.47512 0.23283,5.0856 0.26522,10.27708 0.25416,20.55576 -0.0424,30.83223 -0.0974,8.87521 -1.28076,17.63581 -1.34234,26.51869 -0.4749,10.9939 -1.21963,21.98397 -2.15679,32.92775 -0.85682,5.25667 -0.92801,10.59603 -1.66275,15.86693 -0.45793,4.22888 -1.10513,8.48323 -1.6337,12.67373 -0.4691,2.83436 -1.6592,5.38323 -3.5538,7.54875 -3.00206,3.7125 -7.33325,5.94369 -11.61724,7.76934 -2.90942,1.62331 -6.21241,2.34727 -9.2031,3.74987 -4.11215,1.11665 -8.19998,2.52074 -12.27898,3.79888 -1.30599,0.1206 -3.42898,0.54134 -4.19103,-0.75978 -0.27289,-5.98599 4.9309,-10.56029 10.34277,-11.98487 4.24274,-1.54568 8.04208,-3.87945 12.39587,-5.1629 3.07123,-1.33899 6.00337,-3.62326 6.81914,-7.04255 3.0899,-9.24306 3.02831,-19.27054 3.48027,-28.90829 0.5695,-3.3115 0.33568,-6.74504 0.91909,-10.03641 0.23221,-5.18564 0.53162,-10.52406 0.53919,-15.74699 0.22857,-4.07882 0.22032,-8.35976 0.0689,-12.49905 0.0199,-4.54801 0.0527,-8.97069 -0.265,-13.50493 -0.1094,-3.63319 -0.0888,-7.50164 0.0735,-11.33539 0.0247,-6.79206 -0.27979,-13.54469 -0.62498,-20.2934 -0.15843,-3.30118 -1.1665,-6.69723 -0.93134,-9.88935 0.80103,-0.7887 1.21767,0.59705 2.27933,0.1348 0.65579,-0.24416 1.68284,0.54713 2.20581,-0.47793 0.50948,1.22126 2.45919,0.76742 2.9043,0.33087 1.33532,1.24211 2.79277,-1.51821 0.9436,-1.83817 -1.02772,-0.38045 -1.15967,1.32221 -1.98523,0.4044 -0.85668,-0.78282 -1.72394,0.65733 -2.25482,-0.22058 -0.81368,-0.76092 -1.43111,0.55465 -2.19355,-0.22058 -0.87695,-0.24216 -1.14953,0.8762 -1.83817,0 -0.29705,-0.93227 0.41605,-2.3374 0.1348,-3.48027 0.36934,-3.59508 -0.30188,-7.572 -0.45341,-10.86971 0.94668,-0.11467 1.66984,1.79659 2.78176,0.71076 0.85673,-0.97128 -0.6194,-2.21743 -1.48279,-2.03425 -0.29584,-0.83424 -1.3015,-0.76648 -1.15192,-1.76464 0.17973,-0.81686 2.49985,-0.1848 3.34547,-0.46567 4.20878,-0.29619 8.67391,0.19848 12.73239,-0.58821 z m 162.91091,2.21805 c -1.98819,0.36771 -0.41753,4.25114 1.13966,2.4509 0.42064,-0.86794 0.15225,-2.69121 -1.13966,-2.4509 z m -175.69232,3.03911 c -1.50269,0.54253 -0.21278,2.40795 0.64949,2.78177 0.69141,-0.3576 0.0736,1.10964 0.85781,1.34799 0.53317,0.75577 1.5484,-0.0321 1.28672,1.11516 0.39077,1.07271 1.71821,0.61378 1.9117,1.72788 1.08717,1.42231 2.6925,-0.72896 1.34799,-1.6421 -0.61069,-0.46298 -1.22398,-0.18129 -1.42152,-1.09065 -0.75664,-0.71741 -1.51653,0.0218 -1.48279,-1.18868 -0.1317,-0.76416 -1.30427,-0.86699 -1.43377,-1.09065 0.0575,-0.83255 -0.66669,-2.28198 -1.71563,-1.96072 z m 175.49625,0.71076 c -0.73984,0.67734 -0.31108,1.74296 -0.84556,2.49991 0.49537,0.9951 0.43045,2.00505 0.49018,3.08813 0.67281,1.51379 2.51996,0.20664 1.99748,-1.15192 -0.60625,-1.22094 0.0496,-2.43127 -0.0613,-3.7131 -0.18347,-0.65834 -0.98848,-1.25481 -1.58082,-0.72302 z m 10.56335,2.34061 c -1.80166,0.24285 -1.02573,3.08598 0.60047,2.27933 1.21051,-0.50159 0.87478,-2.72301 -0.60047,-2.27933 z m -1.36025,2.15678 c -1.69685,-0.009 -1.74252,2.88851 0.098,2.38962 1.16403,-0.31092 1.49961,-2.52433 -0.098,-2.38962 z m -177.60401,1.58083 c -1.60438,0.4657 -0.48373,2.31269 0.47792,2.73275 1.13909,1.68301 2.9816,-1.18196 0.99262,-1.60534 -0.36965,-0.33586 -0.60559,-1.39215 -1.47054,-1.12741 z m 175.52075,0.61272 c -1.99203,0.20214 -0.84718,3.37738 0.75978,2.05875 1.04259,-0.76315 0.64204,-2.27624 -0.75978,-2.05875 z m -6.94828,0.47793 c -1.01565,0.72817 -0.82084,3.47369 0.95585,2.84303 1.19521,-0.70194 0.64415,-3.35953 -0.95585,-2.84303 z m 17.84251,3.32096 c -0.81365,0.002 -0.78193,1.46574 -1.24996,0.40439 -1.33868,-1.32075 -3.24061,1.36856 -1.20094,1.88719 0.9864,0.391 1.4691,-1.21855 2.00973,-0.20832 1.86093,0.8431 2.96805,-2.07732 0.44117,-2.08326 z m -185.94931,2.36511 c -1.71003,0.36683 -0.56381,2.94867 0.89458,1.89944 0.74392,0.52912 2.73572,0.23524 2.46314,-1.17643 -0.56633,-0.88118 -1.76299,-0.68596 -2.36511,-0.46567 -0.27925,-0.20786 -0.65257,-0.29225 -0.99261,-0.25734 z m -6.28654,6.07822 c -1.26471,-0.34889 -2.66603,0.27007 -2.56119,1.74013 -0.11694,2.26296 -0.47749,4.72857 0.1348,6.91152 1.66973,1.33469 3.04412,-1.18322 4.33808,-1.89944 1.39734,-1.00592 2.8217,-1.97381 4.10525,-3.08813 -0.31472,1.1871 0.8277,3.87112 -0.31862,4.17878 -1.68857,-0.0703 -1.41134,2.62766 0.28186,2.14453 1.22587,0.39279 2.89984,-0.31279 2.32835,-1.76465 -0.46822,-2.3855 0.39565,-5.1854 -0.58822,-7.36493 -1.32085,-0.85081 -3.17434,-0.64624 -4.05623,0.64949 -1.35639,0.95348 -2.83482,2.12172 -4.17877,2.9043 -0.25659,-1.27357 0.59498,-1.90034 1.71562,-2.2058 1.18344,-0.36708 1.00344,-2.12386 -0.19607,-2.25482 0.24168,-0.72639 -0.75431,0.11786 -1.00486,0.049 z m 184.79738,0.45341 c -1.92185,0.54236 -0.42256,3.01048 -0.77501,4.35023 0.2992,1.42899 -0.67061,4.6571 1.5593,4.70582 2.24642,-0.84712 3.99421,-2.41635 6.00469,-3.68859 0.42036,1.68008 -2.80335,1.41181 -1.66661,3.12489 0.79565,0.63341 2.11347,0.71237 3.07587,0.58821 1.42802,-1.17184 0.19755,-3.55249 0.86544,-5.15661 0.57715,-1.25109 0.33864,-4.30594 -1.68649,-3.24995 -1.99743,1.41429 -4.08584,2.76547 -6.0292,4.27681 10e-4,-1.19579 -0.34116,-2.39154 0.64949,-3.1494 0.51199,-1.42047 -0.9317,-1.79037 -1.99748,-1.80141 z"
         id="path2997"
         style="fill:#000000;fill-opacity:1;fill-rule:nonzero;stroke:none" /></g></g></svg>