<?xml version="1.0" encoding="UTF-8" standalone="no"?>
<!-- Created with Inkscape (http://www.inkscape.org/) -->

<svg
   xmlns:dc="http://purl.org/dc/elements/1.1/"
   xmlns:cc="http://creativecommons.org/ns#"
   xmlns:rdf="http://www.w3.org/1999/02/22-rdf-syntax-ns#"
   xmlns:svg="http://www.w3.org/2000/svg"
   xmlns="http://www.w3.org/2000/svg"
   version="1.1"
   width="1810"
   height="1624"
   id="svg2">
  <metadata
     id="metadata8">
    <rdf:RDF>
      <cc:Work
         rdf:about="">
        <dc:format>image/svg+xml</dc:format>
        <dc:type
           rdf:resource="http://purl.org/dc/dcmitype/StillImage" />
        <dc:title></dc:title>
      </cc:Work>
    </rdf:RDF>
  </metadata>
  <defs
     id="defs6" />
  <rect
     width="1573.1873"
     height="1573.1873"
     x="102.78538"
     y="13.695789"
     id="rect2990"
     style="fill:#ececec;fill-opacity:1;stroke:none" />
  <path
     d="m 701.5912,1386.2712 c -0.9625,-0.7095 -1.75,-1.803 -1.75,-2.4298 0,-0.6269 -0.675,-1.1398 -1.5,-1.1398 -0.825,0 -1.5,0.4766 -1.5,1.059 0,0.5825 -0.5003,0.7498 -1.1118,0.3719 -0.6115,-0.3779 -1.4047,-0.2133 -1.7626,0.3659 -0.358,0.5792 -1.9952,1.1994 -3.6382,1.3781 -2.7526,0.2996 -2.9751,0.089 -2.8315,-2.6749 0.086,-1.65 -0.064,-2.4375 -0.3333,-1.75 -0.8247,2.1069 -2.0174,1.4045 -3.396,-2 -0.7238,-1.7875 -2.1292,-4.375 -3.123,-5.75 -1.8782,-2.5985 -2.1897,-6.5865 -1.9921,-25.5 0.09,-8.6476 -0.1755,-18.8161 -1.5169,-58 -0.7662,-22.3821 -0.5751,-29.4571 0.8416,-31.1641 0.6664,-0.803 0.7134,-1.3359 0.1179,-1.3359 -1.4596,0 -2.1893,-7.3421 -1.1773,-11.8461 0.8635,-3.8435 2.5354,-22.5109 3.5011,-39.0932 0.2704,-4.6417 0.9004,-8.9321 1.4002,-9.5342 0.5384,-0.6488 0.5473,-2.6968 0.022,-5.0265 -0.4877,-2.1623 -0.5057,-4.3969 -0.04,-4.9657 0.4657,-0.5689 0.7388,-3.8468 0.607,-7.2843 -0.1318,-3.4375 0.167,-6.25 0.664,-6.25 0.4971,0 0.5835,-1.0089 0.1921,-2.2421 -0.6326,-1.9932 -0.529,-2.0906 0.9326,-0.8776 1.0719,0.8896 1.6443,0.9739 1.6443,0.2422 0,-1.7986 -0.4439,-2.6412 -1.25,-2.3725 -0.8915,0.2972 -0.8261,0.8704 -1.1158,-9.77 -0.1276,-4.686 -0.5503,-9.0351 -0.9393,-9.6646 -0.3891,-0.6295 -0.2481,-1.2976 0.3132,-1.4847 0.6435,-0.2145 1.2068,-10.3126 1.5248,-27.3354 0.2773,-14.8474 0.7176,-28.1203 0.9784,-29.4953 0.2608,-1.375 0.7081,-5.7754 0.994,-9.7787 0.286,-4.0033 1.2656,-13.0033 2.1769,-20 0.9113,-6.9967 1.7377,-15.1963 1.8363,-18.2213 0.099,-3.025 0.6436,-6.6253 1.2109,-8.0007 0.5674,-1.3754 0.8977,-4.1879 0.7341,-6.25 -0.1637,-2.0621 0.041,-3.7493 0.455,-3.7493 0.4139,0 0.7701,-1.9125 0.7917,-4.25 0.066,-7.135 2.1153,-27.92052 3.3281,-33.74995 0.6294,-3.025 1.2969,-7.075 1.4834,-9 0.7222,-7.45346 1.7055,-12.5487 2.6412,-13.68608 0.6371,-0.77431 0.6168,-1.85695 -0.058,-3.11851 -0.5688,-1.06285 -0.7782,-2.18842 -0.4653,-2.50128 0.3128,-0.31286 0.7292,-2.73453 0.9251,-5.38148 1.0073,-13.6052 1.5355,-18.94631 2.0025,-20.25083 0.2831,-0.79101 0.7107,-5.06601 0.9501,-9.5 0.2395,-4.434 0.7239,-11.43682 1.0766,-15.56182 0.9204,-10.76505 2.309,-36.68955 2.6245,-49 0.092,-3.59963 -1.7947,-41.09022 -2.6928,-53.5 -0.2388,-3.3 -0.6082,-10.36775 -0.8208,-15.70611 -0.2127,-5.33836 -0.9094,-10.33595 -1.5483,-11.10576 -2.1123,-2.54515 -2.1512,-8.00443 -0.073,-10.24778 1.2892,-1.3917 1.9497,-3.66183 2.0367,-7 0.2191,-8.40571 -0.8066,-18.98683 -2.0692,-21.34602 -0.6625,-1.23784 -0.9535,-2.90485 -0.6466,-3.70448 0.3551,-0.92541 -0.3439,-1.79673 -1.923,-2.39711 -1.3645,-0.51878 -2.448,-1.51688 -2.4078,-2.21799 0.1245,-2.17201 3.6254,-7.28837 4.8066,-7.02475 0.6162,0.1375 1.1203,-0.48125 1.1203,-1.375 0,-1.29724 0.6555,-1.49661 3.25,-0.98845 4.41,0.86374 7.7384,3.49841 10.3491,8.19211 1.9683,3.53864 2.106,4.71506 1.3964,11.92366 -0.7964,8.08891 0.01,11.97896 2.3222,11.24375 0.6502,-0.2065 1.6159,-1.33418 2.1458,-2.50595 0.5299,-1.17177 1.9099,-2.36801 3.0666,-2.65832 1.1567,-0.29031 2.6783,-1.55248 3.3813,-2.80482 0.703,-1.25234 3.2332,-3.85198 5.6226,-5.77698 2.3895,-1.925 4.3718,-4.01123 4.4052,-4.63606 0.033,-0.62483 1.7483,-1.9328 3.8108,-2.9066 2.0625,-0.9738 4.338,-2.60008 5.0567,-3.61394 0.7187,-1.01387 1.8871,-1.8434 2.5966,-1.8434 0.7094,0 2.9621,-1.62407 5.006,-3.60903 5.4678,-5.31024 20.624,-10.60226 30.2655,-10.5676 3.9461,0.0142 8.1179,0.53053 9.2707,1.14745 1.1527,0.61692 2.4542,0.90015 2.8923,0.6294 1.7537,-1.08381 9.4351,2.63765 13.6698,6.62267 2.4708,2.32509 4.4924,4.58102 4.4924,5.01318 0,0.43215 0.8761,2.69332 1.9469,5.02483 2.1628,4.70915 4.5159,15.73337 5.5303,25.90938 0.4607,4.62209 1.1362,6.85115 2.1999,7.25932 1.0744,0.41229 1.3468,1.33899 0.9077,3.08835 -0.3816,1.52072 0.034,3.76845 1.0627,5.74068 1.837,3.52341 3.148,8.76352 3.9078,15.61959 0.2668,2.40802 0.766,4.8327 1.1093,5.38818 0.667,1.07915 1.0906,5.04357 1.7349,16.2336 0.2216,3.85 0.543,7.45 0.7142,8 0.1711,0.55 -0.2703,2.04998 -0.981,3.33329 -0.9638,1.74015 -1.0446,3.51961 -0.318,7 0.5358,2.56669 0.9584,6.24171 0.9391,8.16671 -0.019,1.925 0.5116,7.91372 1.1797,13.30826 0.9256,7.47382 0.9372,10.14258 0.049,11.21297 -0.8977,1.0816 -0.8163,2.10529 0.3536,4.45045 1.1081,2.22119 1.2758,3.89515 0.6195,6.18335 -0.5299,1.84766 -0.533,4.77013 -0.01,7.10844 0.4907,2.18395 0.6354,4.9306 0.3215,6.10367 -0.3139,1.17307 -0.6744,3.93286 -0.8012,6.13286 -0.1768,3.06913 -0.6072,3.93162 -1.8493,3.70616 -0.8904,-0.16161 -1.6188,0.17589 -1.6188,0.75 0,0.57411 0.7301,1.04384 1.6224,1.04384 1.3288,0 1.3972,0.27149 0.3776,1.5 -0.9547,1.15034 -0.9719,1.82891 -0.074,2.91097 0.6892,0.83051 0.7871,1.64826 0.2377,1.98776 -1.3614,0.8414 -1.9852,6.4595 -1.1355,10.22689 0.4236,1.87797 0.1993,5.56734 -0.5287,8.69917 -0.7434,3.19831 -0.9071,6.00187 -0.3972,6.80671 1.2287,1.93947 1.107,7.8685 -0.1614,7.8685 -0.5825,0 -0.7688,0.46971 -0.414,1.0438 0.3549,0.5741 0.1013,1.6991 -0.5634,2.5 -0.9514,1.14645 -0.9166,1.80986 0.1639,3.11882 1.0057,1.21825 1.0578,1.76861 0.1949,2.05918 -0.7506,0.25278 -0.9755,1.64099 -0.6205,3.82891 0.3353,2.06619 0.059,4.03277 -0.6949,4.94083 -0.9269,1.11684 -0.9628,1.85687 -0.1381,2.85047 0.6125,0.7381 0.8332,1.62253 0.4903,1.96539 -0.3428,0.34286 -0.7325,4.12646 -0.866,8.40799 -0.1334,4.28154 -0.7958,10.03461 -1.472,12.78461 -1.4035,5.70788 -2.0644,13.36575 -2.1805,25.26515 -0.044,4.5458 -0.4767,8.5098 -0.9607,8.809 -0.4837,0.2991 -0.8797,1.4173 -0.8797,2.4849 0,1.0675 -0.3989,1.9409 -0.8865,1.9409 -0.8945,0 -2.6671,8.2217 -2.3716,11 0.3131,2.9435 -3.2105,12.2406 -5.4393,14.3517 -1.2474,1.1816 -2.2758,2.6591 -2.2853,3.2833 -0.01,0.6243 -1.251,1.9434 -2.7588,2.9313 -1.5079,0.988 -4.8331,3.9437 -7.3895,6.5683 -2.5564,2.6245 -5.9352,5.0791 -7.5085,5.4546 -1.5733,0.3754 -3.9855,1.2504 -5.3605,1.9443 -1.375,0.6939 -4.4189,1.8319 -6.7643,2.5288 -2.3454,0.697 -4.763,1.8682 -5.3725,2.6025 -0.6094,0.7344 -2.2003,1.3352 -3.5353,1.3352 -1.335,0 -3.7293,0.6734 -5.3208,1.4964 -1.6252,0.8404 -3.1413,1.0956 -3.4586,0.5821 -0.3108,-0.5028 -3.6001,-0.8493 -7.3096,-0.77 -5.108,0.1092 -7.8937,-0.396 -11.4808,-2.0821 -2.605,-1.2245 -5.1221,-2.2264 -5.5936,-2.2264 -2.2617,0 -7.2407,-3.4651 -12.9145,-8.9879 -3.4375,-3.346 -6.25,-6.4172 -6.25,-6.825 0,-1.7122 -6.0512,-7.1871 -7.9436,-7.1871 -2.2762,0 -2.7139,1.9425 -0.8564,3.8 0.9333,0.9334 0.9092,1.2 -0.1084,1.2 -0.8678,0 -1.1131,0.7784 -0.7284,2.311 0.319,1.271 0.09,4.0835 -0.5081,6.25 -1.2174,4.4071 -1.8448,8.163 -2.2804,13.6508 -0.162,2.0414 -1.0288,4.8323 -1.9262,6.202 -1.2451,1.9002 -1.778,6.1152 -2.2492,17.7882 -0.8541,21.1579 -0.8517,21.1281 -1.833,22.7026 -0.5935,0.9523 -0.5104,1.1789 0.2584,0.7038 0.8245,-0.5096 0.9883,1.4258 0.6006,7.0955 -0.2932,4.2879 -0.676,10.2519 -0.8506,13.2533 -0.1747,3.0014 -0.8078,5.6206 -1.4071,5.8203 -0.5992,0.1997 -0.8961,1.569 -0.6599,3.0429 1.5532,9.6871 1.4168,12.0688 -0.7299,12.7502 -1.8885,0.5994 -1.9314,0.764 -0.4197,1.61 0.9262,0.5183 1.4108,1.3844 1.0768,1.9247 -0.3339,0.5403 -0.097,1.5976 0.5276,2.3495 0.6605,0.7959 0.7492,1.6054 0.2123,1.9372 -0.9018,0.5574 -0.9821,9.1341 -0.094,10.0224 0.247,0.2471 0.2156,3.5924 -0.07,7.4341 -0.2916,3.9249 -0.079,7.691 0.4849,8.5967 0.7189,1.1543 0.6187,1.8521 -0.3529,2.4583 -0.875,0.5459 -0.9881,1.0744 -0.3185,1.4883 0.5711,0.3529 0.8587,2.5466 0.6391,4.875 -0.2196,2.3283 0.3158,7.789 1.1898,12.135 1.6291,8.1011 1.3131,17.3827 -0.6327,18.5852 -0.6482,0.4006 -0.9443,5.8205 -0.7964,14.5754 0.2294,13.5711 -0.6392,31.6814 -1.5934,33.2254 -0.5484,0.8872 0.2239,10.4006 0.899,11.0757 0.2489,0.2489 -0.065,1.0755 -0.6965,1.8369 -0.8657,1.0431 -0.8635,1.6697 0.01,2.542 0.6394,0.6393 1.1612,4.0903 1.1655,7.7076 0,3.6025 0.8399,10.0269 1.8568,14.2765 1.017,4.2495 1.6128,7.9627 1.324,8.2515 -0.2888,0.2888 -0.6168,8.0619 -0.729,17.2735 -0.1956,16.0717 -0.9821,25.6169 -2.2861,27.7485 -0.3365,0.55 -0.481,2.0125 -0.3211,3.25 0.1599,1.2375 -0.2019,2.25 -0.8039,2.25 -0.707,0 -0.6043,0.7969 0.2898,2.25 0.7615,1.2375 1.1093,3.2309 0.7731,4.4299 -0.5274,1.8801 -0.852,2.0024 -2.3614,0.8897 z m -7.0951,-11.1127 c 0.7898,-2.0581 0.1985,-2.4928 -2.4486,-1.8006 -1.2135,0.3173 -2.2063,1.1995 -2.2063,1.9603 0,1.8915 3.9194,1.757 4.6549,-0.1597 z m -6.6549,-3.4569 c 0,-0.55 -0.45,-1 -1,-1 -0.55,0 -1,0.45 -1,1 0,0.55 0.45,1 1,1 0.55,0 1,-0.45 1,-1 z m 5.1875,-309.6831 c -0.7219,-0.2888 -1.5844,-0.2533 -1.9167,0.079 -0.3323,0.3323 0.2584,0.5687 1.3125,0.5253 1.165,-0.048 1.4019,-0.285 0.6042,-0.6042 z m 78.1125,-13.8855 c 3.1901,-0.3708 6.4204,-1.2946 7.1786,-2.0528 0.7582,-0.7582 1.9732,-1.4139 2.7,-1.4572 0.7268,-0.043 3.3464,-1.3963 5.8214,-3.0069 2.475,-1.6106 5.2875,-3.2027 6.25,-3.538 0.9625,-0.3354 1.75,-1.4731 1.75,-2.5283 0,-1.0552 0.6933,-2.9766 1.5406,-4.2699 0.8474,-1.2932 1.6757,-4.7649 1.8406,-7.7148 0.165,-2.9499 0.5647,-6.0385 0.8883,-6.8635 0.5347,-1.3633 1.4804,-11.9957 2.0191,-22.70001 0.1163,-2.31003 0.7387,-4.72737 1.3833,-5.37186 0.6445,-0.64448 0.9282,-1.80651 0.6305,-2.58228 -0.4553,-1.1865 0.5741,-11.33012 2.4199,-23.8458 0.2433,-1.65 0.6259,-5.025 0.8501,-7.5 0.5655,-6.24037 0.9273,-8.37678 1.6117,-9.51758 0.3242,-0.54033 0.9333,-4.80742 1.3536,-9.48242 0.4203,-4.675 0.8903,-9.625 1.0444,-11 0.154,-1.375 0.7802,-7 1.3914,-12.5 0.6113,-5.5 1.5254,-11.53277 2.0315,-13.40615 0.506,-1.87339 0.6818,-3.79162 0.3906,-4.26274 -0.2912,-0.47112 0.099,-2.11581 0.8666,-3.65487 0.7678,-1.53906 1.4996,-5.66949 1.6262,-9.17875 0.1266,-3.50925 0.4427,-6.72423 0.7024,-7.14439 0.2597,-0.42016 0.7027,-5.62149 0.9846,-11.55851 0.2818,-5.93703 0.7192,-11.3977 0.9718,-12.13483 0.2526,-0.73714 0.1791,-1.79363 -0.1634,-2.34777 -0.3425,-0.55414 -0.6058,-4.45103 -0.5852,-8.65976 0.021,-4.20873 -0.4193,-9.43766 -0.9777,-11.61985 -0.7211,-2.81811 -0.6973,-4.07357 0.082,-4.33333 1.5838,-0.52794 1.3506,-2.19905 -0.3069,-2.19905 -1.6999,0 -2.0967,-10.07248 -0.4372,-11.09812 0.7205,-0.4453 0.6859,-1.32361 -0.1108,-2.81228 -0.6372,-1.19062 -1.0682,-4.51034 -0.9579,-7.37718 0.1104,-2.86683 -0.3836,-9.26242 -1.0977,-14.21242 -0.7142,-4.95 -1.2772,-10.0125 -1.2512,-11.25 0.026,-1.2375 -0.5177,-2.25 -1.2081,-2.25 -1.3541,0 -5.0024,-8.65452 -6.0882,-14.44228 -0.367,-1.95674 -1.0673,-3.55772 -1.5561,-3.55772 -0.4888,0 -0.8887,-0.85186 -0.8887,-1.89301 0,-1.04116 -0.6326,-2.13575 -1.4057,-2.43243 -0.7731,-0.29668 -1.7304,-2.01756 -2.1272,-3.82417 -0.895,-4.0752 -2.5725,-6.85039 -4.1408,-6.85039 -0.6855,0 -1.1551,-1.31602 -1.1045,-3.09526 0.1114,-3.91866 -1.6472,-5.09733 -6.8418,-4.5856 -2.266,0.22323 -4.8485,-0.002 -5.7389,-0.5001 -2.2313,-1.24871 -8.7757,0.84369 -12.7438,4.07447 -8.7168,7.09714 -21.8973,19.80126 -21.8973,21.10582 0,0.55037 -0.6496,1.00067 -1.4435,1.00067 -0.7939,0 -2.2409,1.35 -3.2156,3 -0.9747,1.65 -2.1251,3 -2.5565,3 -0.4314,0 -0.7844,0.675 -0.7844,1.5 0,0.825 -0.3999,1.5 -0.8887,1.5 -0.4888,0 -1.183,1.5686 -1.5427,3.48578 -0.3596,1.91719 -1.1497,3.37969 -1.7556,3.25 -0.6059,-0.12968 -1.5009,1.23176 -1.9888,3.02541 -0.488,1.79366 -1.773,3.81441 -2.8557,4.49055 -2.5555,1.59592 -2.5358,3.12988 0.032,2.45851 1.7705,-0.46299 2,-0.0307 2,3.76679 0,3.78168 -0.2961,4.34641 -2.5,4.76771 -1.4321,0.27377 -2.5337,0.003 -2.5789,-0.63342 -0.051,-0.72555 -0.2476,-0.69691 -0.5647,0.0825 -0.2671,0.65661 -1.1835,0.92603 -2.0364,0.59873 -1.2034,-0.46177 -1.4018,-0.12558 -0.8856,1.50064 0.6117,1.92742 0.42,2.02545 -2.3865,1.22054 -2.4945,-0.71542 -3.2305,-0.54096 -4.0315,0.95557 -0.7388,1.38051 -0.5877,1.98125 0.6145,2.44257 1.2902,0.49509 1.3588,0.89568 0.3593,2.09996 -0.8801,1.06044 -0.907,1.48817 -0.094,1.48817 0.6744,0 0.9242,0.92067 0.6106,2.25 -0.292,1.2375 -0.1468,4.58727 0.3227,7.44392 0.6703,4.07813 0.54,5.5076 -0.6065,6.65404 -1.5114,1.51146 -0.8002,4.12654 0.8457,3.10933 0.512,-0.31643 0.9309,-0.12532 0.9309,0.42468 0,0.55 -0.45,1.27811 -1,1.61803 -0.55,0.33992 -1,1.51803 -1,2.61803 0,1.1 0.3985,1.75369 0.8856,1.45264 0.4871,-0.30105 1.1047,0.59851 1.3724,1.99902 0.3331,1.74237 0.1,2.39793 -0.7384,2.07623 -0.954,-0.3661 -0.9441,0.34546 0.045,3.21535 1.7485,5.07495 2.1552,15.39893 0.6267,15.90843 -1.5712,0.52373 -1.53,2.95065 0.059,3.48016 0.6875,0.22909 1.3397,1.50409 1.4494,2.83333 0.8006,9.70032 1.4396,14.40438 2.0832,15.33579 1.2607,1.82462 0.8213,19.14839 -0.5269,20.77296 -0.971,1.16989 -0.9238,1.86595 0.2294,3.3901 0.7982,1.05488 1.4656,2.34147 1.4831,2.85909 0.018,0.51762 -0.6289,0.0676 -1.4364,-1 -1.1139,-1.47276 -1.4722,-1.5792 -1.4847,-0.44113 -0.01,0.825 0.4075,2.17065 0.9258,2.99032 0.6353,1.00496 0.4578,2.22957 -0.5451,3.76019 -1.0502,1.60286 -1.2028,2.80137 -0.5193,4.07859 1.0629,1.98591 1.1713,8.1709 0.1433,8.1709 -0.5266,0 -0.5144,8.65937 0.018,12.5 0.1996,1.44045 -1.1888,12.93021 -1.6154,13.36905 -0.1973,0.20297 0.355,1.08281 1.2274,1.9552 1.4482,1.4482 1.4005,1.70937 -0.5477,3.00292 -1.1735,0.77923 -2.0982,2.14939 -2.0548,3.0448 0.05,1.03636 0.2623,1.17375 0.5834,0.37803 0.895,-2.21811 1.8318,-1.3293 2.0636,1.95787 0.1242,1.76214 -0.322,3.5425 -0.9917,3.95637 -0.9536,0.58939 -0.9484,1.02158 0.024,1.99412 1.5912,1.59113 1.5875,2.84102 -0.01,2.84387 -0.8497,0.002 -1.2859,1.94139 -1.3623,6.05851 -0.062,3.33095 -0.716,7.18421 -1.4538,8.5628 -1.0734,2.00562 -1.0893,2.66237 -0.08,3.28635 0.8283,0.51193 1.0209,1.73956 0.5606,3.57352 -0.6267,2.49713 -0.8341,3.8288 -1.2872,8.26659 -0.071,0.68749 -1.0279,1.24999 -2.1279,1.24999 -2.3432,0 -2.6672,1.53001 -0.5,2.36163 0.9308,0.35719 1.5,1.88006 1.5,4.01337 0,2.87685 -0.3079,3.35725 -1.8871,2.94425 -1.038,-0.2714 -2.2325,0.065 -2.6546,0.7481 -0.4648,0.7522 -0.3569,0.988 0.2739,0.5982 1.7295,-1.069 3.5465,1.9451 2.4301,4.0312 -1.3507,2.5238 -0.2907,7.5665 1.4501,6.8985 1.5312,-0.5876 3.3528,2.2479 2.6691,4.1547 -0.2465,0.6875 0.011,1.25 0.5722,1.25 1.4144,0 8.127,7.2178 8.1376,8.75 0.01,0.6875 0.4092,1.25 0.8987,1.25 0.4894,0 3.3617,2.3625 6.3828,5.25 3.0211,2.8875 6.6972,6.2522 8.1693,7.4771 3.7873,3.1516 15.4496,7.3151 19.0579,6.8038 1.65,-0.2338 5.61,-0.7286 8.8,-1.0995 z m 43.7,-30.4314 c 0,-0.55 -1.2375,-0.9931 -2.75,-0.9846 -2.1429,0.012 -2.4189,0.2293 -1.25,0.9846 1.9565,1.2645 4,1.2645 4,0 z m -111,-32.45233 c 0,-0.61548 -0.9,-1.11905 -2,-1.11905 -1.932,0 -2.5371,0.70104 -1.5,1.7381 0.9485,0.94847 3.5,0.49718 3.5,-0.61905 z m 17.8069,-54.07408 c -0.3079,-0.30789 -0.8671,0.24711 -1.2426,1.23333 -0.5427,1.4252 -0.4278,1.54006 0.5598,0.5598 0.6834,-0.67834 0.9907,-1.48524 0.6828,-1.79313 z m -8.6236,-16.69021 c -0.7175,-0.71756 -1.1833,-0.7766 -1.1833,-0.15 0,1.33478 1.1826,2.51739 1.85,1.85 0.2842,-0.28416 -0.016,-1.04916 -0.6667,-1.7 z m 10.1983,-28.33527 c 0.3414,-0.88992 0.1738,-1.29132 -0.3931,-0.94098 -0.5437,0.33602 -0.9885,1.0344 -0.9885,1.55194 0,1.43843 0.7168,1.12146 1.3816,-0.61096 z m -11.3816,-1.44806 c 0,-0.55 -0.675,-1 -1.5,-1 -0.825,0 -1.5,0.45 -1.5,1 0,0.55 0.675,1 1.5,1 0.825,0 1.5,-0.45 1.5,-1 z m 12,-6.46482 c 0,-0.25565 -0.9,-0.94648 -2,-1.53518 -1.5963,-0.85431 -2,-0.76049 -2,0.46482 0,0.86851 0.8685,1.53518 2,1.53518 1.1,0 2,-0.20917 2,-0.46482 z m -3.1375,-10.41563 c -0.2177,-0.63386 -0.913,-0.71347 -1.7406,-0.19931 -0.758,0.47089 -1.0447,1.39567 -0.6372,2.05509 0.8763,1.41785 2.9471,-0.19831 2.3778,-1.85578 z m -0.567,-10.4505 c -0.3696,-0.59802 -0.9608,-0.21852 -1.3977,0.89733 -1.2244,3.1266 -0.9432,4.07768 0.602,2.0363 0.7899,-1.04353 1.1479,-2.36366 0.7957,-2.93363 z m 0.4329,-11.35423 c 0.1944,-0.58309 -0.565,-1.30034 -1.6875,-1.59388 -2.2685,-0.59321 -2.2986,-0.55618 -1.4177,1.73954 0.6602,1.72052 2.5121,1.63366 3.1052,-0.14566 z m -4.7284,-47.31482 c 0,-0.55 -0.4766,-1 -1.059,-1 -0.5825,0 -0.7809,0.45 -0.441,1 0.3399,0.55 0.8165,1 1.059,1 0.2426,0 0.441,-0.45 0.441,-1 z m -76.8324,287.27045 c -1.8328,-0.2252 -5.3031,-1.8407 -7.7117,-3.59 -2.4086,-1.7492 -6.8715,-4.9388 -9.9176,-7.088 -3.0461,-2.1491 -5.5383,-4.4893 -5.5383,-5.2003 0,-0.711 -0.5977,-1.6526 -1.3282,-2.0925 -0.7305,-0.4398 -2.1775,-2.2622 -3.2156,-4.0497 -2.0861,-3.592 -5.7185,-4.3905 -7.28,-1.6003 -0.6016,1.0749 -1.6732,1.4536 -3.0753,1.087 -1.6707,-0.4369 -3.2838,0.6338 -7.2112,4.7864 -2.7964,2.9569 -5.6468,5.1237 -6.3732,4.8449 -0.7228,-0.2774 -1.6113,-0.024 -1.9744,0.5639 -0.3631,0.5875 -1.4785,1.0681 -2.4787,1.0681 -1.0002,0 -2.3459,0.6355 -2.9905,1.4122 -0.6446,0.7767 -3.4214,1.9518 -6.1707,2.6113 -4.3131,1.0347 -5.2429,0.9782 -6.7792,-0.4121 -0.9793,-0.8863 -2.3892,-1.6114 -3.1332,-1.6114 -2.2861,0 -17.44,-6.4207 -18.2895,-7.7493 -0.4398,-0.6878 -1.4549,-1.2507 -2.2557,-1.2507 -2.5493,0 -15.3783,-14.3023 -15.4201,-17.1909 -0.014,-0.9301 -0.4399,-1.9477 -0.9476,-2.2615 -0.5077,-0.3138 -1.2184,-1.9153 -1.5794,-3.559 -0.361,-1.6437 -1.096,-2.9886 -1.6332,-2.9886 -0.5372,0 -1.8749,-2.1375 -2.9727,-4.75 -1.0978,-2.6125 -3.0611,-6.8168 -4.363,-9.343 -1.3018,-2.5262 -2.8653,-6.4434 -3.4742,-8.705 -0.609,-2.2616 -1.7182,-4.7229 -2.4649,-5.4696 -3.7453,-3.7453 -10.7262,-21.80893 -11.1005,-28.72333 -0.1343,-2.47996 -0.3436,-4.73402 -0.4651,-5.00902 -0.6569,-1.48642 -0.3982,-5.59088 0.3883,-6.15925 0.5017,-0.36259 0.16,-1.41137 -0.7592,-2.33062 -0.9193,-0.91925 -1.4555,-2.02073 -1.1916,-2.44772 0.2639,-0.42699 0.7553,-5.45321 1.0919,-11.16938 1.6089,-27.31682 2.1253,-33.56391 2.8744,-34.77609 0.3638,-0.58856 0.8349,-2.44111 1.047,-4.11678 0.6297,-4.97588 2.5602,-9.90805 4.4021,-11.24706 0.9481,-0.6892 2.2753,-2.6031 2.9493,-4.2531 1.2224,-2.99235 8.9861,-10.43557 14.6739,-14.0681 1.65,-1.05378 3.8977,-2.7307 4.995,-3.7265 1.0972,-0.99579 2.7847,-1.60401 3.75,-1.35159 1.0733,0.2807 1.755,-0.10039 1.755,-0.98115 0,-0.79206 1.575,-2.36938 3.5,-3.50516 1.925,-1.13578 3.5,-2.4706 3.5,-2.96628 0,-0.49567 0.8734,-0.90122 1.941,-0.90122 1.0675,0 2.2191,-0.45 2.559,-1 0.3399,-0.55 1.2882,-1 2.1073,-1 0.8191,0 3.3423,-0.89526 5.607,-1.98946 3.2863,-1.58778 6.499,-2.0334 15.9114,-2.20703 6.4864,-0.11966 12.1078,0.0967 12.4919,0.48079 0.3841,0.38409 1.1898,0.30408 1.7904,-0.17781 0.6324,-0.50744 2.1441,-0.45063 3.592,0.13499 1.375,0.55613 3.4801,1.08024 4.678,1.1647 2.4765,0.1746 6.322,3.29286 6.322,5.12636 0,0.67242 -0.6941,1.7986 -1.5424,2.50263 -1.8091,1.50142 -0.6245,3.16375 2.6057,3.65672 3.848,0.58724 4.9182,2.82487 5.4787,11.45435 0.2959,4.55685 1.043,8.59728 1.6602,8.97872 1.3186,0.81495 3.408,-1.00795 3.5955,-3.13686 0.6827,-7.75271 0.8489,-20.08847 0.2754,-20.44293 -0.9112,-0.56313 -0.5636,-10.43014 0.4543,-12.89609 0.4202,-1.01801 0.361,-2.14301 -0.1317,-2.5 -0.7594,-0.55032 -0.8972,-6.9552 -0.3152,-14.64908 0.1464,-1.93493 -0.599,-16.71093 -1.5594,-30.91129 -0.7462,-11.03319 -3.6339,-30.657 -5.139,-34.92281 -0.7602,-2.15455 -1.3821,-4.81885 -1.3821,-5.92067 0,-3.91835 -9.2328,-20.94215 -14.159,-26.10697 -2.6625,-2.79155 -4.841,-5.38314 -4.841,-5.75908 0,-0.9486 -5.7996,-2.87918 -8.6492,-2.87918 -1.293,0 -2.3508,-0.35357 -2.3508,-0.78571 0,-0.43215 -0.7875,-0.85133 -1.75,-0.93152 -0.9625,-0.0802 -3.9936,-0.63284 -6.7357,-1.22811 -4.4362,-0.96304 -5.2858,-0.86039 -7.7095,0.93152 -1.4981,1.1076 -3.417,2.01382 -4.2643,2.01382 -0.8473,0 -1.5405,0.39375 -1.5405,0.875 0,0.48125 -1.3761,1.15022 -3.058,1.48661 -3.5018,0.70036 -5.942,2.78118 -5.942,5.06696 0,0.86429 -0.5109,1.57143 -1.1353,1.57143 -1.2969,0 -5.8647,4.65677 -5.8647,5.97894 0,0.48175 -1.125,1.76082 -2.5,2.8424 -1.375,1.08158 -2.5,2.63414 -2.5,3.45014 0,0.81599 -0.6631,2.03395 -1.4735,2.70656 -0.8105,0.67261 -1.7629,2.7649 -2.1164,4.64954 -0.3536,1.88464 -1.4962,3.88332 -2.5392,4.44151 -1.3754,0.73611 -1.6588,1.48405 -1.0316,2.7229 1.0099,1.99449 0.7197,17.49454 -0.3602,19.24181 -0.4044,0.6544 -0.1533,1.54953 0.5581,1.9892 0.8859,0.54751 1.3496,3.74192 1.4718,10.1382 0.1271,6.65849 0.6807,10.30954 1.9287,12.72108 0.9628,1.86025 1.5636,4.65549 1.3352,6.21163 -0.264,1.79875 0.089,3.02288 0.9693,3.36066 0.7615,0.29222 1.087,1.01284 0.7232,1.60138 -0.3637,0.58854 0.1005,1.91191 1.0317,2.94081 0.9311,1.0289 1.7943,3.13804 1.9181,4.68698 0.1239,1.54894 0.5614,3.82876 0.9724,5.06626 0.4109,1.2375 0.3793,2.29933 -0.07,2.35963 -4.9788,0.66774 -7.5393,0.47571 -7.9507,-0.59627 -0.2659,-0.69307 -2.4822,-2.08437 -4.9251,-3.09177 -2.4429,-1.0074 -4.4416,-2.23816 -4.4416,-2.73502 0,-0.49686 -1.1627,-0.61157 -2.5838,-0.2549 -1.844,0.46282 -2.3759,0.31207 -1.8576,-0.52648 0.5351,-0.8659 -0.5608,-1.02575 -4.1662,-0.60767 -2.6908,0.31202 -4.1049,0.33973 -3.1424,0.0616 0.9625,-0.27816 1.7357,-1.03524 1.7182,-1.68241 -0.045,-1.64944 -2.2249,-4.15721 -3.7182,-4.27668 -3.3025,-0.2642 -3.4162,-0.45828 -2.7248,-4.65 0.3855,-2.3375 1.0551,-4.7 1.488,-5.25 1.3873,-1.76255 1.48,-11.88147 0.1311,-14.31392 -1.049,-1.89183 -1.0424,-2.60397 0.036,-3.90393 0.8523,-1.02709 1.248,-3.92529 1.1177,-8.18608 -0.2954,-9.66062 1.5301,-22.25009 3.4275,-23.63747 1.1228,-0.82101 1.2446,-1.35884 0.423,-1.86665 -1.3967,-0.86319 0.1129,-4.16905 3.1,-6.78888 1.0642,-0.93331 1.6357,-2.18092 1.2701,-2.77247 -1.1106,-1.79704 2.3788,-10.60186 5.2673,-13.29088 1.4926,-1.38954 3.6138,-3.74065 4.7138,-5.2247 1.1,-1.48405 3.1525,-3.89453 4.561,-5.35664 1.4086,-1.46211 3.3314,-3.89588 4.2731,-5.40838 0.9416,-1.5125 2.3767,-2.75 3.189,-2.75 0.8123,0 1.4769,-0.39541 1.4769,-0.87868 0,-0.48327 1.35,-1.43787 3,-2.12132 1.65,-0.68345 3,-1.55903 3,-1.94572 0,-0.60184 7.9508,-4.45147 14.5,-7.02067 1.1,-0.43152 3.2847,-1.30244 4.8548,-1.93538 1.5701,-0.63293 5.5652,-1.43409 8.8781,-1.78036 5.3702,-0.5613 6.1993,-0.39978 7.6453,1.48946 1.0998,1.437 2.9093,2.19214 5.6218,2.34621 2.2,0.12495 4.675,0.55532 5.5,0.95638 0.825,0.40105 3.525,1.71643 6,2.92306 7.1455,3.48364 15,9.03185 15,10.59564 0,0.78878 0.683,1.69623 1.5177,2.01655 0.8348,0.32032 1.4565,1.09369 1.3815,1.71861 -0.3916,3.26785 0.1883,4.81661 1.6008,4.27459 0.825,-0.31658 1.5,-0.13972 1.5,0.39301 0,0.53274 0.675,0.96862 1.5,0.96862 0.8334,0 1.5,0.88889 1.5,2 0,1.1 0.4766,2 1.059,2 0.5825,0 0.7604,0.48331 0.3953,1.07403 -0.3651,0.59071 0.2491,2.05321 1.3649,3.25 4.7496,5.09451 10.3698,29.20506 7.2562,31.12936 -0.5914,0.36555 -1.0754,1.11464 -1.0754,1.66464 0,0.55 0.4189,0.74111 0.9309,0.42468 1.6569,-1.02403 2.329,1.53166 2.584,9.8261 0.1375,4.47215 0.7413,11.3234 1.3418,15.22499 0.6005,3.90159 0.8578,8.85159 0.5718,11 -0.286,2.14841 -0.023,6.6062 0.5853,9.9062 0.8129,4.41259 0.8066,7.58741 -0.024,12 -1.1395,6.05475 -1.6362,52.18709 -0.5734,53.24988 0.3113,0.31136 0.1103,1.11527 -0.4467,1.78647 -0.6277,0.75628 -0.6775,2.12228 -0.1311,3.59201 1.1989,3.22457 1.8095,16.43554 1.1237,24.31262 -0.1168,1.34254 -0.8646,2.69124 -1.6618,2.99713 -1.2421,0.47666 -1.2243,0.78115 0.125,2.13045 2.0931,2.09307 2.0009,4.42771 -0.1757,4.44675 -1.4955,0.0131 -1.5319,0.15626 -0.25,0.98469 0.825,0.53316 1.0725,0.97627 0.55,0.98469 -0.5225,0.008 -0.4207,0.5446 0.2263,1.19152 0.9016,0.9016 0.8899,1.53007 -0.05,2.69195 -0.973,1.20275 -0.9681,1.36068 0.024,0.76478 0.7866,-0.47258 1.25,-0.17302 1.25,0.80804 0,0.85746 -0.3579,1.55902 -0.7952,1.55902 -0.4374,0 -0.7423,2.3625 -0.6776,5.25 0.065,2.8875 -0.365,5.5875 -0.9549,6 -0.7587,0.53066 -0.7489,0.96934 0.034,1.5 0.6571,0.44561 1.0457,3.59096 0.9574,7.75 -0.082,3.85 0.3956,9.25 1.0607,12 0.8451,3.49375 0.9202,6.35563 0.2494,9.5 -0.528,2.475 -1.0804,6.975 -1.2276,10 -0.3174,6.52082 -1.3421,10.00002 -2.9453,10.00002 -0.6406,0 0.4908,1.125 2.5143,2.5 2.0235,1.375 4.0615,2.5 4.5288,2.5 0.8896,0 -0.6756,12.0202 -2.6519,20.3666 -0.6339,2.6766 -0.9036,5.6508 -0.5994,6.6091 0.732,2.3063 -0.3718,5.0243 -2.0403,5.0243 -0.7337,0 -1.6593,0.5264 -2.057,1.1699 -0.4862,0.7867 -0.1779,0.9608 0.941,0.5314 1.2773,-0.4902 1.664,-0.06 1.664,1.8499 0,4.2118 8.7846,15.4488 12.0771,15.4488 1.2884,0 3.9229,5.5407 3.9229,8.2503 0,1.2923 -0.54,2.8897 -1.2,3.5497 -0.9333,0.9333 -0.9333,1.4666 0,2.4 0.66,0.66 1.2,1.9725 1.2,2.9166 0,0.9442 0.5625,1.9503 1.25,2.2358 0.8578,0.3562 0.5092,1.1668 -1.1108,2.5833 -1.2984,1.1354 -2.6484,1.9923 -3,1.9042 -0.3516,-0.088 -2.1388,-0.3443 -3.9716,-0.5695 z m -88.6676,-32.2705 c 0.3399,-0.55 -0.084,-1 -0.941,-1 -0.8574,0 -1.559,0.45 -1.559,1 0,0.55 0.4234,1 0.941,1 0.5175,0 1.2191,-0.45 1.559,-1 z m 38.565,-3.6728 c 3.6107,-1.8299 7.5179,-3.3272 8.6826,-3.3272 1.2394,0 2.3809,-0.8294 2.7524,-2 0.3491,-1.1 0.9798,-2 1.4015,-2 0.9807,0 0.7182,-17.6649 -0.3776,-25.4061 l -0.836,-5.9062 3.6021,0.5846 c 3.3769,0.548 3.6696,0.3802 4.6806,-2.6832 0.8865,-2.6861 1.3323,-15.43761 1.1194,-32.01816 -0.021,-1.61101 0.4394,-3.5038 1.0223,-4.2062 0.5829,-0.70239 0.7524,-1.77459 0.3766,-2.38266 -0.9183,-1.48576 -1.5525,-22.98216 -0.678,-22.98154 1.2657,9e-4 0.4534,-14.21912 -0.8586,-15.02994 -0.817,-0.50494 -1.0191,-1.88677 -0.5898,-4.03304 0.7676,-3.83792 -0.6445,-6.39064 -6.4232,-11.61129 -2.1666,-1.95742 -3.9393,-4.13756 -3.9393,-4.84476 0,-0.70719 -1.3461,-1.75508 -2.9914,-2.32863 -1.6453,-0.57355 -4.9776,-3.00089 -7.4052,-5.39409 -2.4275,-2.3932 -5.594,-4.88906 -7.0366,-5.54635 -1.4426,-0.6573 -2.9199,-1.98648 -3.2829,-2.95374 -0.363,-0.96726 -1.2755,-2.22098 -2.0277,-2.78605 -0.7523,-0.56506 -1.4691,-1.69006 -1.5928,-2.5 -0.6816,-4.46196 -5.8709,-6.74402 -7.8715,-3.46161 -0.8763,1.43764 -7.4891,1.7879 -8.3217,0.44077 -1.1103,-1.79642 -2.4877,0.13042 -1.8655,2.60953 0.4588,1.82783 0.2092,2.43871 -0.9963,2.43871 -0.8846,0 -1.6084,-0.40186 -1.6084,-0.89301 0,-1.26417 -2.7197,-2.15178 -4.5,-1.46862 -1.8887,0.72477 -1.9629,2.36163 -0.107,2.36163 0.7662,0 1.6662,0.7118 2,1.58179 0.8389,2.18602 0.8709,2.13146 -1.643,2.79765 -1.2375,0.32795 -4.9097,3.07673 -8.1605,6.10841 -3.2508,3.03168 -6.2883,5.51215 -6.75,5.51215 -0.4617,0 -0.8395,0.675 -0.8395,1.5 0,0.825 -0.7875,2.29557 -1.75,3.26794 -1.1534,1.16517 -1.836,3.63702 -2.0022,7.25 -0.5218,11.34432 -1.803,23.13229 -4.1281,37.98206 -0.5024,3.20892 -0.4735,7.99936 0.069,11.5 0.5119,3.3 1.0944,7.50173 1.2946,9.33718 0.2002,1.83545 1.0733,4.12088 1.9401,5.07874 0.8669,0.95786 1.5761,2.43853 1.5761,3.29038 0,0.85184 0.675,2.10901 1.5,2.7937 0.825,0.68469 1.5,2.51323 1.5,4.06343 0,1.55019 0.4573,3.10119 1.0163,3.44665 0.559,0.34546 0.7766,1.01593 0.4837,1.48992 -0.2929,0.47395 -0.095,1.13235 0.44,1.46295 0.535,0.3306 0.7414,1.2036 0.4589,1.94 -0.2826,0.7364 0.1119,1.5791 0.8767,1.8726 0.7648,0.2935 2.1879,3.0686 3.1625,6.1669 0.9745,3.0984 2.8478,7.7538 4.1627,10.3455 1.315,2.5916 2.3927,5.1549 2.395,5.6962 0.01,2.02 5.5506,11.5112 6.7228,11.5135 0.672,10e-4 0.9604,0.6751 0.643,1.5023 -0.3166,0.825 -0.1386,1.5 0.3954,1.5 0.534,0 2.2319,1.8195 3.773,4.0433 1.5411,2.2238 3.3694,3.8256 4.0629,3.5595 0.6935,-0.2661 1.8004,0.1662 2.4597,0.9607 1.6733,2.0161 6.5554,3.2586 12.4474,3.1679 3.5733,-0.055 6.8733,-1.0264 11.565,-3.4042 z m -55.065,-46.3272 c 0,-0.55 -0.4766,-1 -1.059,-1 -0.5825,0 -0.7809,0.45 -0.441,1 0.3399,0.55 0.8165,1 1.059,1 0.2426,0 0.441,-0.45 0.441,-1 z m 97,-86.99995 c 0,-0.55 -0.9,-1 -2,-1 -1.1,0 -2,0.45 -2,1 0,0.55 0.9,1 2,1 1.1,0 2,-0.45 2,-1 z m -9.5748,-47.1211 c -0.6481,-1.04858 -2.4252,-0.20682 -2.4252,1.14873 0,0.50028 0.6724,0.65157 1.4943,0.3362 0.8218,-0.31537 1.2407,-0.98359 0.9309,-1.48493 z m -5.1275,-1.54557 c -0.5549,-1.44605 -3.2977,-1.86191 -3.2977,-0.5 0,1.21574 0.8101,1.83334 2.4047,1.83334 0.7725,0 1.1744,-0.6 0.893,-1.33334 z m -1.2977,-32.33333 c 0,-0.55 -0.45,-1 -1,-1 -0.55,0 -1,0.45 -1,1 0,0.55 0.45,1 1,1 0.55,0 1,-0.45 1,-1 z m -104,-1.06215 c 0,-0.51582 -0.675,-0.93785 -1.5,-0.93785 -0.8333,0 -1.5,-0.88889 -1.5,-2 0,-1.26817 -0.6404,-1.97111 -1.75,-1.92105 -1.0454,0.0472 -1.2467,0.28201 -0.5,0.58333 0.6875,0.27741 1.25,1.49612 1.25,2.70825 0,1.48698 0.6506,2.25287 2,2.35452 1.1,0.0829 2,-0.27138 2,-0.7872 z m 9,-24.18785 c 0,-1.17109 -1.4568,-0.87974 -1.875,0.375 -0.2063,0.61875 0.1312,0.95625 0.75,0.75 0.6187,-0.20625 1.125,-0.7125 1.125,-1.125 z m -7.6664,-2.17689 c 0.6281,-1.63692 -2.0134,-4.2538 -3.1078,-3.07871 -0.3992,0.42868 -0.1886,0.97188 0.468,1.20711 0.6566,0.23524 0.946,1.07363 0.643,1.8631 -0.3029,0.78946 -0.1008,1.43539 0.4492,1.43539 0.55,0 1.2464,-0.6421 1.5476,-1.42689 z m 103.6664,-10.13213 c 0,-0.24254 -0.45,-0.44098 -1,-0.44098 -0.55,0 -1,0.47656 -1,1.05902 0,0.58246 0.45,0.7809 1,0.44098 0.55,-0.33992 1,-0.81648 1,-1.05902 z m -12,-65.83399 c 0,-0.21616 -0.6984,-0.661 -1.5519,-0.98855 -0.89,-0.34149 -1.2914,-0.17385 -0.941,0.39301 0.5872,0.95021 2.4929,1.40545 2.4929,0.59554 z m -18.1767,-8.28588 c -0.4294,-2.22992 -2.2079,-2.27795 -2.6329,-0.0711 -0.2108,1.0946 0.2796,1.75 1.3096,1.75 1.0034,0 1.5203,-0.65585 1.3233,-1.6789 z M 446.2646,1082.4516 c 0.307,-1.2375 0.2998,-1.6875 -0.016,-1 -1.2521,2.7262 -2.6538,1.1555 -2.0868,-2.3383 0.4548,-2.8028 0.2792,-3.4721 -0.8023,-3.0571 -1.5132,0.5807 -2.6005,-2.8389 -2.715,-8.5388 -0.037,-1.8237 -0.5125,-3.8783 -1.0575,-4.5658 -0.6677,-0.8423 -0.5928,-1.7295 0.2296,-2.7204 1.9328,-2.3288 3.5288,-42.8153 1.7815,-45.1905 -0.4948,-0.6726 -0.4119,-1.4343 0.1972,-1.8107 0.6513,-0.4026 0.7172,-1.2924 0.1731,-2.339 -0.4829,-0.9292 -0.934,-4.1644 -1.0024,-7.1894 -0.068,-3.025 -0.5723,-7.97495 -1.12,-10.99995 -1.0785,-5.95722 -1.9403,-13.60081 -2.424,-21.5 -0.1684,-2.75 -0.6035,-7.71176 -0.967,-11.02613 -0.3635,-3.31437 -0.7849,-10.38645 -0.9364,-15.71573 -0.1516,-5.32928 -0.4799,-9.89395 -0.7297,-10.14371 -0.2498,-0.24975 -0.3195,-7.12767 -0.155,-15.28426 0.1645,-8.15659 0.2685,-15.28017 0.2313,-15.83017 -0.7184,-10.60019 -1.3245,-17.34945 -2.5849,-28.78058 -0.8357,-7.57933 -1.2376,-14.23654 -0.8932,-14.79381 0.3444,-0.55727 0.194,-1.55601 -0.3342,-2.21941 -0.5282,-0.66341 -1.0211,-4.8062 -1.0954,-9.2062 -0.2606,-15.43837 -1.0282,-28.06042 -2.0981,-34.5 -0.594,-3.575 -2.0151,-12.125 -3.158,-19 -1.1429,-6.875 -2.0786,-13.625 -2.0793,-15 -7e-4,-1.375 -0.3229,-2.95 -0.716,-3.5 -0.3931,-0.55 -1.2861,-3.025 -1.9843,-5.5 -1.856,-6.57921 -6.858,-15.06333 -10.9069,-18.5 -3.1964,-2.71308 -4.1519,-2.98457 -9.9903,-2.8387 -3.5507,0.0887 -6.7419,0.62416 -7.0915,1.18988 -0.3496,0.56572 -2.4258,2.23545 -4.6138,3.71052 -2.188,1.47508 -4.338,3.30213 -4.7779,4.06013 -0.4398,0.75799 -1.4523,1.37817 -2.25,1.37817 -0.7976,0 -1.4503,0.45 -1.4503,1 0,0.55 -0.7875,1.83237 -1.75,2.84972 -3.3183,3.50741 -4.8052,5.66041 -6.1468,8.90028 -0.7402,1.7875 -1.7715,3.25 -2.2919,3.25 -0.5203,0 -0.6502,0.93225 -0.2885,2.07166 0.3946,1.24324 0.07,2.74281 -0.812,3.75 -2.1583,2.4649 -4.4951,7.51541 -4.0492,8.75133 0.2129,0.59015 -0.5239,1.89739 -1.6372,2.90499 -1.1134,1.0076 -2.0244,2.73227 -2.0244,3.83262 0,1.10034 -1.0349,3.39309 -2.2998,5.09501 -1.2648,1.70191 -2.9226,5.11939 -3.6839,7.59439 -0.7614,2.475 -2.5914,7.2 -4.0668,10.5 -1.4753,3.3 -2.6976,7.67421 -2.7162,9.72046 -0.018,2.04626 -1.0102,5.30055 -2.2037,7.23177 -1.1936,1.93121 -1.9062,3.93841 -1.5835,4.46043 0.3226,0.52203 0.1292,1.2318 -0.4298,1.57726 -0.5589,0.34546 -1.0163,1.51739 -1.0163,2.60428 0,2.98127 -3.0234,7.13143 -4.3764,6.00742 -0.8018,-0.66602 -1.0819,0.16717 -0.9781,2.90888 0.08,2.11323 0.4241,4.29297 0.7645,4.84387 0.3405,0.5509 -0.3027,1.29419 -1.4293,1.65176 -1.1266,0.35756 -2.8206,1.45097 -3.7645,2.42978 -2.0072,2.08151 -9.2162,1.72819 -9.2162,-0.4517 0,-0.8133 -0.7611,-1.09794 -2.0409,-0.76327 -2.1044,0.55034 -2.1968,2.68216 -0.1257,2.90406 0.6416,0.0688 1.6166,0.18125 2.1666,0.25 1.8887,0.23608 0.9998,2.125 -1,2.125 -1.1,0 -2,0.45 -2,1 0,0.55 0.3375,0.94671 0.75,0.88158 2.4387,-0.38506 3.4387,0.18618 2.4376,1.39247 -0.5816,0.70072 -0.9244,2.95072 -0.7618,5 0.1626,2.04927 -0.092,3.72595 -0.565,3.72595 -1.4743,0 -0.9417,3.03173 0.6392,3.63837 0.825,0.31659 1.5,1.45779 1.5,2.53601 0,1.45569 -0.4785,1.80851 -1.8588,1.37043 -2.1273,-0.67517 -4.9004,1.86794 -3.1897,2.92518 0.5767,0.35642 1.5082,0.36398 2.0699,0.0168 0.6198,-0.38306 0.936,0.48963 0.8042,2.2196 -0.1195,1.56797 0.1193,3.39532 0.5305,4.06078 0.5196,0.84061 0.2211,1.00781 -0.9777,0.54778 -1.7445,-0.66942 -1.7386,-0.5706 0.2525,4.24737 0.2415,0.58427 -0.6441,1.64201 -1.968,2.35054 -1.3239,0.70854 -2.3522,2.0305 -2.285,2.9377 0.067,0.9072 -0.3868,1.55481 -1.0088,1.43914 -0.622,-0.11567 -1.9293,0.67183 -2.905,1.75 -0.9757,1.07817 -1.3024,1.96031 -0.726,1.96031 0.5764,0 1.2841,-0.61533 1.5727,-1.36741 0.849,-2.21262 8.5722,-0.47911 8.8392,1.98404 0.3754,3.46147 0.2746,3.86828 -0.9,3.63337 -0.6875,-0.1375 -1.25,0.3875 -1.25,1.16667 0,0.77916 -0.5625,1.64364 -1.25,1.92105 -0.6875,0.27741 -0.2109,0.53991 1.0591,0.58333 1.2699,0.0434 2.0624,0.47796 1.761,0.96564 -0.3014,0.48768 0.117,1.43867 0.9299,2.11331 0.8129,0.67464 1.2179,1.64748 0.9,2.16187 -0.3413,0.55221 -1.1559,0.45565 -1.989,-0.23576 -0.8394,-0.6966 -1.411,-0.76287 -1.411,-0.16357 0,0.55408 1.1647,1.77054 2.5881,2.70324 2.0173,1.3218 2.453,2.2342 1.9755,4.13697 -0.422,1.68135 -0.14,2.62256 0.9061,3.02398 1.9893,0.76339 0.9524,2.37326 -1.5287,2.37326 -2.8927,0 -2.3129,1.30707 1.3306,3 2.9754,1.38247 3.2284,1.87286 3.2284,6.25881 0,3.395 -0.3582,4.62198 -1.25,4.28138 -0.6875,-0.26258 -1.25,-0.0557 -1.25,0.45981 0,0.51548 -0.7531,0.64823 -1.6736,0.29501 -1.2486,-0.47912 -1.5168,-0.23359 -1.0562,0.96677 0.3396,0.88495 0.08,1.82755 -0.5764,2.09466 -0.8995,0.36592 -0.9032,0.50513 -0.015,0.56461 0.6482,0.0434 1.8536,-0.59605 2.6786,-1.42105 2.4647,-2.4647 3.876,-1.83804 3.1638,1.4048 -0.3509,1.59764 -0.2148,3.16636 0.3024,3.48604 0.5173,0.31968 0.9651,2.36379 0.9952,4.54247 0.03,2.17867 0.5796,4.94218 1.2213,6.14113 0.9189,1.717 0.8822,2.3557 -0.1728,3.00774 -1.0661,0.65888 -1.1041,1.45159 -0.1859,3.88403 0.9288,2.46079 0.8759,3.33383 -0.2715,4.48124 -0.9656,0.96565 -1.0783,1.63933 -0.3494,2.08978 0.5916,0.36562 0.9827,2.08181 0.8692,3.81376 -0.1135,1.73196 0.058,3.82401 0.3815,4.64901 0.5181,1.32189 0.293,7.65648 -0.3197,9 -0.1255,0.275 -0.159,0.88485 -0.074,1.35525 0.084,0.4704 -0.3674,1.4829 -1.0041,2.25 -0.6366,0.7671 -0.8223,1.3947 -0.4126,1.3947 0.4097,0 0.1847,0.675 -0.5,1.5 -0.9793,1.18 -0.9823,1.5 -0.014,1.5 0.8488,0 1.0097,0.8537 0.5185,2.75 -0.945,3.6484 -1.0547,4.1254 -1.9552,8.5 -0.4245,2.0625 -1.1193,3.75 -1.5439,3.75 -1.661,0 -1.886,4.4745 -0.3125,6.2132 0.8894,0.9828 1.144,1.7868 0.5657,1.7868 -1.1641,0 -0.8778,13.1891 0.3286,15.1411 0.4863,0.7868 -0.072,0.9994 -1.7719,0.6745 -1.6359,-0.3128 -2.4819,-0.021 -2.4819,0.855 0,0.7312 0.6,1.3294 1.3333,1.3294 0.8064,0 1.3333,1.1528 1.3333,2.9167 0,1.6042 0.5215,3.0905 1.1589,3.303 0.7667,0.2555 0.5284,1.1227 -0.704,2.5621 -1.3594,1.5876 -2.0684,1.8437 -2.6228,0.947 -0.575,-0.93 -1.1665,-0.8221 -2.4326,0.4437 -2.1875,2.1869 -1.1009,5.2442 1.6117,4.5349 1.0928,-0.2858 2.2388,-0.1118 2.5469,0.3865 0.308,0.4984 -0.029,0.9205 -0.749,0.9379 -0.9797,0.024 -0.9317,0.3383 0.1909,1.25 0.825,0.6701 1.613,2.2634 1.7511,3.5407 0.2232,2.0652 0.085,2.1562 -1.25,0.8215 -0.8256,-0.8256 -1.5011,-1.9918 -1.5011,-2.5916 0,-0.689 -1.0125,-0.8383 -2.75,-0.4055 -2.4791,0.6174 -2.6148,0.5208 -1.3776,-0.981 0.81,-0.9831 0.9366,-1.6659 0.3091,-1.6659 -0.5849,0 -1.3461,0.4574 -1.6916,1.0164 -1.0048,1.6258 -2.3507,0.1675 -1.7976,-1.9477 0.4064,-1.5541 -0.2926,-2.1682 -3.5939,-3.1573 -3.2815,-0.9832 -4.0984,-1.6947 -4.0984,-3.5696 0,-1.288 -0.45,-2.3418 -1,-2.3418 -1.258,0 -1.2833,-5.0035 -0.035,-6.9771 0.6324,-1.0001 0.454,-2.0077 -0.5526,-3.1199 -1.1,-1.2155 -1.6091,-5.0924 -1.9573,-14.9068 -0.4184,-11.7904 -0.2754,-13.4249 1.2872,-14.7117 1.6671,-1.3729 1.663,-1.4175 -0.08,-0.8636 -1.6619,0.5281 -1.7656,0.176 -1.0808,-3.6683 0.4166,-2.3389 0.8483,-5.3776 0.9593,-6.7526 0.1111,-1.375 0.3098,-2.725 0.4416,-3 0.1318,-0.275 0.1686,-1.42829 0.082,-2.56293 -0.087,-1.13464 0.3443,-4.05964 0.9579,-6.5 0.6136,-2.44036 1.2891,-6.87263 1.5009,-9.84949 0.2119,-2.97686 0.9041,-5.73311 1.5382,-6.125 0.7169,-0.44307 0.7822,-0.94166 0.1726,-1.3184 -1.3739,-0.84911 -0.9898,-9.55858 0.4611,-10.45525 0.8806,-0.54422 0.9356,-1.8899 0.2092,-5.12268 -0.5418,-2.41151 -0.9479,-6.45043 -0.9024,-8.97538 0.1265,-7.01462 0.1801,-25.46315 0.077,-26.59082 -0.05,-0.55 -0.3169,-5.5 -0.5928,-11 -0.276,-5.5 -0.7043,-10.87658 -0.9518,-11.94796 -0.2476,-1.07138 0.036,-2.53388 0.6305,-3.25 0.7821,-0.94238 0.7332,-1.72059 -0.177,-2.81726 -0.6916,-0.83338 -1.3483,-3.87088 -1.4592,-6.75 -0.111,-2.87913 -0.3285,-5.68478 -0.4834,-6.23478 -0.1548,-0.55 -0.2283,-3.1375 -0.1631,-5.75 0.1051,-4.21928 0.3698,-4.75171 2.3684,-4.76531 1.2685,-0.009 1.782,-0.33578 1.177,-0.75 -1.3179,-0.90244 -2.8322,-4.37583 -2.5002,-5.73469 0.1344,-0.55 0.3653,-5.275 0.5132,-10.5 0.3173,-11.21491 1.4886,-21.06308 2.6868,-22.59201 0.4707,-0.6006 0.5595,-1.38834 0.1973,-1.75052 -0.3622,-0.36219 -0.8424,-3.35932 -1.0671,-6.66029 -0.3252,-4.77613 -0.09,-6.12412 1.1528,-6.60094 1.3432,-0.51546 1.3703,-0.87211 0.1934,-2.55229 -0.9473,-1.35256 -1.129,-3.01252 -0.5909,-5.39853 0.4274,-1.89498 0.5443,-3.44542 0.2599,-3.44542 -0.2844,0 -0.01,-0.61529 0.6177,-1.36732 0.863,-1.03992 0.7732,-1.66741 -0.3753,-2.62054 -0.9887,-0.82057 -1.305,-2.16097 -0.9162,-3.88268 0.6565,-2.90694 1.3222,-11.90751 1.6728,-22.61579 0.1883,-5.74898 0.5387,-7.04601 1.9788,-7.32332 2.3063,-0.44413 2.2117,-1.42087 -0.2888,-2.98251 -1.1214,-0.70029 -1.7837,-1.68614 -1.4718,-2.19079 0.3119,-0.50464 0.7725,-5.04803 1.0236,-10.09642 0.251,-5.04839 0.9636,-9.79005 1.5836,-10.53703 0.6199,-0.74697 0.8416,-2.10226 0.4926,-3.01174 -1.178,-3.06978 0.3019,-5.43729 2.9788,-4.76543 2.9804,0.74802 3.2637,-1.09091 0.404,-2.62142 -2.174,-1.16345 -1.8007,-3.24024 0.4286,-2.38478 0.7751,0.29744 1.5624,-0.35101 1.8743,-1.54367 0.3372,-1.28946 1.3587,-2.05656 2.7384,-2.05656 1.6702,0 2.0416,0.41452 1.5408,1.71952 -0.3629,0.94573 -0.3198,1.37949 0.096,0.96389 0.7096,-0.70954 3.3018,6.33795 3.3349,9.06659 0.01,0.6875 -1.1473,1.25 -2.5681,1.25 -1.6445,0 -2.4168,0.4543 -2.125,1.25 0.252,0.6875 0.9645,1.1375 1.5833,1 0.6187,-0.1375 1.125,0.16968 1.125,0.68261 0,0.51294 0.8024,1.18728 1.7831,1.49854 2.0882,0.66277 2.2714,5.29908 0.2586,6.54308 -0.7139,0.44119 -1.0202,1.25149 -0.6808,1.80066 0.3394,0.54917 -0.026,1.53239 -0.8125,2.18492 -1.8464,1.53239 -0.8095,4.33432 1.3306,3.59569 1.0123,-0.34936 0.7852,0.15128 -0.6048,1.33322 -2.0078,1.70731 -2.4882,3.67115 -2.2286,9.11128 0.095,1.99116 -0.4331,4.23004 -1.34,5.6809 -0.406,0.6495 -0.3392,1.42754 0.1486,1.72899 0.9531,0.58906 0.689,10.01746 -0.3569,12.73896 -0.3485,0.90687 -0.213,1.90883 0.3011,2.22659 0.5756,0.35572 0.5437,2.28686 -0.083,5.0253 -0.947,4.13868 -1.1287,4.32854 -2.6166,2.73366 -0.8794,-0.94265 -1.5275,-1.54965 -1.4402,-1.34888 0.087,0.20076 -0.2172,1.67509 -0.6764,3.27627 -0.9392,3.27498 0.7028,5.25233 2.1759,2.62014 0.4921,-0.87937 1.5578,-1.34441 2.3683,-1.03341 1.691,0.64889 2.0355,3.47965 0.3774,3.10148 -0.6028,-0.1375 -1.4798,0.73956 -1.9489,1.94901 -0.6404,1.65133 -0.5237,2.07274 0.4685,1.692 0.826,-0.31698 1.5063,0.46109 1.815,2.07588 0.4138,2.16481 0.1917,2.48701 -1.3724,1.99061 -1.1739,-0.37259 -1.8717,-0.10364 -1.8814,0.72511 -0.011,0.9703 -0.2637,0.92439 -0.9583,-0.17425 -0.7017,-1.10989 -1.2326,-1.20209 -2.0744,-0.36028 -0.8418,0.84181 -0.7348,1.86338 0.4183,3.99164 1.4351,2.64883 1.5526,2.69394 1.5897,0.61028 0.057,-3.18239 4.5138,-3.23437 4.5701,-0.0533 0.061,3.46011 1.3017,2.7744 3.4271,-1.89451 1.2024,-2.6412 2.6039,-5.58358 3.1145,-6.53862 0.5106,-0.95504 0.9283,-2.40896 0.9283,-3.23095 0,-0.82198 1.125,-1.77687 2.5,-2.12198 2.5518,-0.64045 3.2224,-1.84615 1.5885,-2.85595 -1.1281,-0.69721 0.9195,-6.73992 2.6615,-7.85438 0.6875,-0.43983 1.25,-1.59281 1.25,-2.56217 0,-0.96937 0.9,-3.62527 2,-5.902 1.1,-2.27674 2,-4.61127 2,-5.18783 0,-0.57657 0.4012,-1.04831 0.8915,-1.04831 0.4902,0 1.6452,-1.9125 2.5665,-4.25 2.5705,-6.52201 10.0849,-17.20441 16.1117,-22.9043 2.9867,-2.8247 5.4303,-5.9971 5.4303,-7.04977 0,-1.05268 0.4262,-1.65056 0.9471,-1.32862 0.7691,0.4753 12.8476,-7.31145 17.7607,-11.44994 0.6643,-0.55956 2.0518,-1.01737 3.0834,-1.01737 1.0315,0 2.1885,-0.31302 2.5711,-0.69561 0.3826,-0.38259 1.2451,-0.81362 1.9167,-0.95785 0.6716,-0.14422 4.1209,-0.89795 7.6652,-1.67494 3.5443,-0.77699 9.1693,-1.35846 12.5,-1.29215 5.118,0.10188 6.6432,0.58514 9.8486,3.12055 4.8065,3.80185 10.3498,14.56092 8.1394,15.79793 -0.7964,0.44567 -1.9528,0.49832 -2.5698,0.117 -0.6777,-0.41886 -0.9365,-0.14339 -0.6538,0.69587 0.2575,0.76406 1.4334,1.3892 2.6132,1.3892 2.202,0 7.5233,4.82161 6.4766,5.86836 -0.3209,0.32082 0.024,1.31458 0.7653,2.20836 0.7418,0.89377 1.4374,2.14215 1.5459,2.77416 0.1085,0.63202 0.5499,2.04912 0.9811,3.14912 0.7103,1.81256 0.6178,1.86483 -0.9876,0.55768 -1.4879,-1.21143 -1.4216,-0.77123 0.4137,2.75 1.2019,2.30578 2.5756,4.19232 3.0528,4.19232 0.4772,0 0.629,0.62187 0.3374,1.38193 -0.2917,0.76005 0.5968,2.59813 1.9744,4.0846 2.0218,2.18146 2.3287,3.16587 1.5917,5.10443 -1.2554,3.30198 -0.9136,9.23347 0.6047,10.49356 0.8675,0.71998 0.9928,1.94621 0.4073,3.98759 -0.5804,2.02369 -0.4911,2.94789 0.2848,2.94789 0.8375,0 0.8363,0.2938 -0.01,1.13476 -0.8464,0.84634 -0.7987,1.67237 0.1877,3.25 1.8144,2.90195 2.7091,8.80646 1.6003,10.56136 -0.5617,0.88899 -0.527,2.16865 0.09,3.3216 1.3048,2.43803 1.8009,17.87763 0.6239,19.41836 -0.5446,0.71295 -0.5254,1.90964 0.048,3 2.0075,3.81602 3.6561,25.31392 1.9413,25.31392 -0.5339,0 -0.7229,0.64593 -0.4199,1.43539 0.3029,0.78947 0.014,1.68947 -0.643,2 -0.8781,0.41529 -0.8333,0.72886 0.1693,1.18566 1.1509,0.52434 1.1509,0.75793 0,1.5 -0.9302,0.59976 -1.0223,1.11718 -0.2902,1.62895 2.1032,1.47019 3.078,6.13365 1.1476,5.49017 -0.4288,-0.14291 -0.04,0.86959 0.865,2.25 1.002,1.52922 1.2088,2.50983 0.5295,2.50983 -1.4899,0 -1.427,4.288 0.085,5.8 0.8869,0.8869 0.9073,1.49271 0.078,2.32186 -0.6171,0.61702 -0.8974,1.70685 -0.623,2.42185 0.2743,0.71501 0.039,2.15881 -0.5225,3.20845 -0.7229,1.35062 -0.6565,2.61569 0.2271,4.32814 1.2185,2.36141 1.3175,12.08509 0.1697,16.65847 -0.3122,1.24368 -0.1481,2.26123 0.3646,2.26123 1.0291,0 0.7039,15.22351 -0.3621,16.94828 -0.3636,0.58829 -0.3402,2.07809 0.052,3.31067 1.0873,3.41759 1.1071,16.67739 0.025,17.03794 -0.5247,0.17489 0.1073,1.75337 1.4044,3.50774 2.5872,3.4994 4.2327,15.19537 2.1379,15.19537 -0.5989,0 -0.8298,0.675 -0.5133,1.5 0.3645,0.94984 -0.014,1.5 -1.0313,1.5 -2.297,0 -1.988,1.6671 0.4259,2.29835 1.7941,0.46918 2.0111,1.25673 1.8476,6.70521 -0.1557,5.18986 -0.5077,6.2929 -2.2091,6.92229 -2.011,0.74389 -2.0105,0.75221 0.066,1.29519 1.6822,0.4399 2.2103,1.59315 2.7077,5.91273 0.3398,2.95138 0.5828,6.71618 0.5399,8.36618 -0.043,1.65 0.1644,5.4331 0.4608,8.4069 0.3425,3.4371 0.1096,5.924 -0.6391,6.8263 -0.9104,1.0969 -0.8852,1.6002 0.111,2.2159 1.0222,0.6318 1.0393,1.263 0.082,3.0509 -0.9671,1.8071 -0.938,2.4246 0.1467,3.1119 0.7443,0.4716 1.0726,0.8644 0.7296,0.8728 -0.3431,0.01 -0.3176,1.4778 0.057,3.2653 0.4915,2.3484 0.2594,3.5664 -0.8368,4.3905 -1.2334,0.9273 -1.3003,1.6158 -0.358,3.6839 0.8883,1.9496 0.8791,2.6755 -0.04,3.1095 -0.7939,0.375 -0.842,0.7412 -0.1424,1.0848 1.0914,0.5361 1.1206,5.5774 0.043,7.322 -0.3361,0.5437 -0.1883,1.1395 0.3282,1.3239 0.5166,0.1845 0.1161,2.1077 -0.8901,4.2738 -1.0061,2.166 -1.5745,4.6023 -1.2631,5.414 0.3348,0.8723 0.1396,1.212 -0.4773,0.8307 -0.6448,-0.3985 -1.2988,1.2784 -1.7113,4.3884 -0.4616,3.4798 -1.5038,5.9199 -3.3763,7.9057 -1.4898,1.5797 -3.4917,3.8061 -4.4489,4.9476 -2.4082,2.8719 -5.0656,2.7648 -4.3364,-0.1748 z m 2.5766,-6.1682 c 0,-0.23 -0.2731,-1.13 -0.607,-2 -0.8574,-2.2344 -2.393,-1.966 -2.393,0.4182 0,1.1112 0.6667,2 1.5,2 0.825,0 1.5,-0.1882 1.5,-0.4182 z m 6.1125,-15.8693 c -0.8167,-0.8166 -1.1125,-0.7047 -1.1125,0.4209 0,1.9878 1.3447,3.3325 1.8417,1.8416 0.2108,-0.6325 -0.1173,-1.6506 -0.7292,-2.2625 z m -138.1125,-2.1533 c 0,-0.7241 -1.3804,-1.8883 -3.0675,-2.5871 -1.7928,-0.7426 -2.6098,-1.5535 -1.9661,-1.9513 0.6057,-0.3744 0.8129,-1.4322 0.4605,-2.3507 -0.7893,-2.0569 -1.1656,-2.0742 -3.0976,-0.1422 -1.7441,1.7441 -0.5437,3.9519 2.71,4.9846 1.0222,0.3245 1.6455,1.1453 1.385,1.8241 -0.2706,0.7054 0.3939,1.2995 1.5511,1.3866 1.1135,0.084 2.0246,-0.4399 2.0246,-1.164 z m 3,-2.1182 c 0,-0.8574 -0.45,-1.2809 -1,-0.941 -0.55,0.34 -1,1.0415 -1,1.5591 0,0.5175 0.45,0.9409 1,0.9409 0.55,0 1,-0.7015 1,-1.559 z m -7.8125,-17.1241 c -0.7219,-0.2888 -1.5844,-0.2533 -1.9167,0.079 -0.3323,0.3323 0.2584,0.5687 1.3125,0.5253 1.165,-0.048 1.4019,-0.285 0.6042,-0.6042 z m 12.0906,-0.4387 c -0.617,-0.617 -0.8952,-1.8545 -0.6183,-2.75 0.3791,-1.2258 0.1126,-1.1485 -1.0782,0.313 -2.1486,2.637 -1.9884,3.5588 0.6184,3.5588 1.626,0 1.9073,-0.2927 1.0781,-1.1218 z m -6.2744,-16.3742 c -1.2897,-1.3728 -2.5989,-2.2421 -2.9094,-1.9316 -0.3104,0.3104 0.5539,1.4236 1.9206,2.4738 3.4159,2.6245 3.7775,2.4262 0.9888,-0.5422 z m 4.1838,-3.1871 c -0.7219,-0.2888 -1.5844,-0.2533 -1.9167,0.079 -0.3323,0.3323 0.2584,0.5687 1.3125,0.5253 1.165,-0.048 1.4019,-0.285 0.6042,-0.6042 z m 1.7972,-5.0669 c -0.01,-0.4125 -0.3614,-1.2945 -0.7844,-1.9601 -0.5548,-0.873 -1.11,-0.6641 -1.9931,0.75 -1.0633,1.7025 -0.9602,1.9601 0.7843,1.9601 1.1047,0 2.0016,-0.3375 1.9932,-0.75 z m 128.6037,-6.9949 c -1.0924,-1.0924 -1.8415,0.6449 -1.0572,2.4518 0.7437,1.7134 0.7976,1.7118 1.212,-0.035 0.2385,-1.0055 0.1688,-2.093 -0.1548,-2.4167 z m -133.7144,-0.8356 c -1.8446,-1.8446 -3.4068,-2.4863 -5.4773,-2.25 l -2.8967,0.3305 2.25,2.25 c 1.4038,1.4038 3.4638,2.25 5.4773,2.25 l 3.2272,0 z m 5.626,0.5805 c -0.3399,-0.55 -1.068,-1 -1.618,-1 -0.55,0 -0.7219,0.45 -0.382,1 0.3399,0.55 1.068,1 1.618,1 0.55,0 0.7219,-0.45 0.382,-1 z m 4.5,-6.94093 c 0,-0.51754 -0.375,-1.17275 -0.8333,-1.45601 -0.4584,-0.28327 -0.8334,0.14017 -0.8334,0.94098 0,0.80076 0.375,1.45596 0.8334,1.45596 0.4583,0 0.8333,-0.4234 0.8333,-0.94093 z m -6.7424,-3.49184 c -0.2558,-1.33805 -1.1578,-2.69864 -2.0045,-3.02354 -2.0316,-0.77962 -3.0766,0.32936 -1.3284,1.40981 0.7517,0.46458 1.0903,1.56512 0.7524,2.44563 -0.4254,1.10847 -0.051,1.60092 1.2156,1.60092 1.3992,0 1.7205,-0.5726 1.3649,-2.43282 z m 1.9557,-6.56718 c -0.534,-3.63815 -1.8063,-3.90961 -2.4536,-0.5235 -0.5101,2.66872 -0.09,3.5235 1.7338,3.5235 0.7202,0 0.9931,-1.13758 0.7198,-3 z m 1.9742,-5.68311 c -0.7219,-0.28887 -1.5844,-0.25335 -1.9167,0.0789 -0.3323,0.33229 0.2584,0.56864 1.3125,0.52522 1.165,-0.048 1.4019,-0.28494 0.6042,-0.60416 z m 125.4009,-5.06183 c -1.0924,-1.0924 -1.8415,0.64486 -1.0572,2.45181 0.7437,1.71337 0.7976,1.71181 1.212,-0.0351 0.2385,-1.00555 0.1688,-2.09305 -0.1548,-2.41667 z m -124.5884,0.24494 c 0,-0.83333 -0.8889,-1.5 -2,-1.5 -2.2133,0 -2.7096,1.547 -0.75,2.33772 2.1761,0.87807 2.75,0.70323 2.75,-0.83772 z m -9,-6.5 c 0,-0.55 -0.4766,-1 -1.059,-1 -0.5825,0 -0.7809,0.45 -0.441,1 0.3399,0.55 0.8165,1 1.059,1 0.2426,0 0.441,-0.45 0.441,-1 z m 127,-2.53518 c 0,-0.25565 -0.9,-0.46482 -2,-0.46482 -1.1315,0 -2,0.66667 -2,1.53518 0,1.22531 0.4037,1.31913 2,0.46482 1.1,-0.5887 2,-1.27953 2,-1.53518 z m -115,-4.46482 c 0,-0.55 -1.0125,-0.96837 -2.25,-0.92971 -2.1469,0.0671 -2.1584,0.10966 -0.25,0.92971 1.1,0.47269 2.1125,0.89106 2.25,0.92971 0.1375,0.0387 0.25,-0.37971 0.25,-0.92971 z m -3,-4.26164 c 1.307,0.36064 1.3113,0.28279 0.034,-0.60503 -1.6123,-1.12027 -4.0579,0.24811 -4.0017,2.23911 0.017,0.62016 0.58,0.41306 1.25,-0.46021 0.67,-0.87327 1.8932,-1.40152 2.7182,-1.17387 z m -7.257,-5.46735 c 0.1863,-0.559 -0.5796,-1.25653 -1.7021,-1.55007 -1.2951,-0.33866 -2.0409,-0.0502 -2.0409,0.78935 0,0.72767 -0.5625,1.54001 -1.25,1.8052 -0.6875,0.26519 0.078,0.36735 1.7021,0.22702 1.6237,-0.14032 3.1046,-0.71249 3.2909,-1.2715 z m 5.257,-6.66402 c 0,-0.21616 -0.6984,-0.661 -1.5519,-0.98855 -0.89,-0.34149 -1.2914,-0.17385 -0.941,0.39301 0.5872,0.95021 2.4929,1.40545 2.4929,0.59554 z m -7.6549,-3.15012 c -0.3257,-0.84872 -0.8067,-1.32866 -1.0688,-1.06653 -0.2621,0.26213 -0.18,0.95654 0.1826,1.54313 0.986,1.59546 1.5624,1.28551 0.8862,-0.4766 z m 6.1122,-4.38777 c 0.7395,-1.1966 -1.1416,-2.38223 -2.4736,-1.55902 -1.1184,0.69118 -0.3842,2.48992 1.0163,2.48992 0.4851,0 1.1409,-0.41891 1.4573,-0.9309 z m -9.9573,-7.0691 c -0.3399,-0.55 -0.8165,-1 -1.059,-1 -0.2426,0 -0.441,0.45 -0.441,1 0,0.55 0.4766,1 1.059,1 0.5825,0 0.7809,-0.45 0.441,-1 z m 142.5,-9.55902 c 0,-0.24254 -0.7016,-0.44098 -1.559,-0.44098 -0.8575,0 -1.2764,0.45734 -0.9309,1.01631 0.5708,0.92358 2.4899,0.48015 2.4899,-0.57533 z m -6.5826,-17.30733 c 0.2945,-0.4765 -0.3093,-1.63081 -1.3417,-2.56515 -2.0429,-1.84876 -3.4778,-0.77993 -2.472,1.84126 0.6558,1.70891 2.9373,2.14197 3.8137,0.72389 z m 5.0826,-4.13365 c -0.3399,-0.55 -1.2665,-1 -2.059,-1 -0.7926,0 -1.441,0.45 -1.441,1 0,0.55 0.9266,1 2.059,1 1.1325,0 1.7809,-0.45 1.441,-1 z m -140.5,-14.96862 c 0,-0.53273 -0.675,-0.70959 -1.5,-0.39301 -0.825,0.31659 -1.5,0.75246 -1.5,0.96862 0,0.21615 0.675,0.39301 1.5,0.39301 0.825,0 1.5,-0.43588 1.5,-0.96862 z m 138,-38.60281 c 0,-0.31428 -0.6214,-1.19286 -1.381,-1.95238 -1.7086,-1.70863 -3.0214,-0.66594 -1.4879,1.1818 1.1252,1.35581 2.8689,1.82416 2.8689,0.77058 z m -129.902,-21.25334 c 0.3572,-1.74637 0.5044,-3.17523 0.3272,-3.17523 -0.1772,0 -1.5654,1.1522 -3.0849,2.56043 -2.283,2.11578 -2.509,2.72079 -1.3015,3.48375 2.2285,1.40815 3.346,0.61837 4.0592,-2.86895 z m 4.902,0.79339 c 0,-1.19717 -2.8206,-2.48133 -3.6433,-1.65869 -0.8757,0.87571 0.6097,2.69007 2.2023,2.69007 0.7926,0 1.441,-0.46412 1.441,-1.03138 z m 118,-0.9096 c 0,-1.67643 -1.7735,-2.09154 -2.3638,-0.55328 -0.3483,0.90766 0,1.49426 0.8952,1.49426 0.8077,0 1.4686,-0.42344 1.4686,-0.94098 z m -10,-2.05902 c 0,-0.55 -0.675,-1 -1.5,-1 -0.825,0 -1.5,0.45 -1.5,1 0,0.55 0.675,1 1.5,1 0.825,0 1.5,-0.45 1.5,-1 z m -109.029,-5.6786 c 0.2591,-0.23658 -0.1758,-0.82994 -0.9664,-1.31857 -1.4968,-0.92507 -4.0046,0.4445 -4.0046,2.187 0,0.8523 3.8169,0.18549 4.971,-0.86843 z m 125.029,-12.71441 c 0,-0.94863 -2.9934,-1.42672 -3.527,-0.56332 -0.3251,0.52598 0.3355,0.95633 1.468,0.95633 1.1324,0 2.059,-0.17686 2.059,-0.39301 z m -133,-29.16601 c 0,-0.24254 -0.7016,-0.44098 -1.559,-0.44098 -0.8575,0 -1.2764,0.45734 -0.9309,1.01631 0.5708,0.92358 2.4899,0.48015 2.4899,-0.57533 z m 121,-0.44098 c 0,-0.55 -0.4766,-1 -1.059,-1 -0.5825,0 -0.7809,0.45 -0.441,1 0.3399,0.55 0.8165,1 1.059,1 0.2426,0 0.441,-0.45 0.441,-1 z m -115.5,-2 c 0.3399,-0.55 -0.084,-1 -0.941,-1 -0.8574,0 -1.559,0.45 -1.559,1 0,0.55 0.4234,1 0.941,1 0.5175,0 1.2191,-0.45 1.559,-1 z m 113.5,-1.05902 c 0,-0.58246 -0.45,-0.7809 -1,-0.44098 -0.55,0.33992 -1,0.81648 -1,1.05902 0,0.24254 0.45,0.44098 1,0.44098 0.55,0 1,-0.47656 1,-1.05902 z M 324.0934,763.30075 c -0.373,-0.60363 -0.7921,-0.47934 -1.0563,0.31331 -0.3594,1.07809 -0.586,1.07445 -1.2626,-0.0203 -1.0739,-1.73757 -2.3596,-0.44543 -1.5795,1.58741 0.4952,1.29068 0.9448,1.35094 2.5588,0.34298 1.0769,-0.67254 1.6797,-1.67307 1.3396,-2.2234 z m 65.7478,-21.65812 c 0,-1.13246 -0.45,-1.7809 -1,-1.44098 -0.55,0.33992 -1,1.26648 -1,2.05902 0,0.79254 0.45,1.44098 1,1.44098 0.55,0 1,-0.92656 1,-2.05902 z m 37,-8.94098 c 0,-0.55 -0.45,-1 -1,-1 -0.55,0 -1,0.45 -1,1 0,0.55 0.45,1 1,1 0.55,0 1,-0.45 1,-1 z m -6.9703,-2.46415 c -0.5568,-0.67093 -0.7163,-1.51596 -0.3544,-1.87786 0.3619,-0.36189 -0.092,-0.65799 -1.0086,-0.65799 -1.0939,0 -1.6667,0.82709 -1.6667,2.40638 0,1.92242 0.4065,2.30009 2.0211,1.87786 1.4567,-0.38094 1.7383,-0.86916 1.0086,-1.74839 z m 5.9703,-2.53585 c 0,-0.55 -0.45,-1 -1,-1 -0.55,0 -1,0.45 -1,1 0,0.55 0.45,1 1,1 0.55,0 1,-0.45 1,-1 z m 502.8514,344.51805 c -0.4494,-0.4494 -2.6266,-0.7177 -16.8159,-2.0724 -3.0054,-0.2869 -5.7189,-0.9334 -6.03,-1.4367 -0.311,-0.5032 -2.503,-1.2248 -4.8712,-1.6035 -2.3681,-0.3786 -4.5403,-1.2998 -4.827,-2.047 -0.3094,-0.8063 -2.0269,-1.3585 -4.2257,-1.3585 -2.4492,0 -4.5153,-0.7553 -6.0973,-2.2292 -1.3161,-1.2261 -3.3134,-2.1185 -4.4386,-1.9831 -3.2984,0.397 -13.4348,-6.856 -15.619,-11.176 -0.8653,-1.7114 -3.8695,-7.6117 -6.6761,-13.1117 -5.6128,-10.999 -10.4434,-27.2563 -10.2737,-34.5757 0.058,-2.51672 -0.3177,-5.6904 -0.8356,-7.05266 -0.5911,-1.55458 -0.588,-3.10887 0.01,-4.17422 0.6028,-1.0772 0.5993,-1.69737 -0.01,-1.69737 -1.4944,0 -0.1306,-22.58792 1.5256,-25.26762 0.3621,-0.58586 0.8035,-3.35282 0.9809,-6.14879 0.1774,-2.79598 0.5756,-9.13359 0.885,-14.08359 0.3094,-4.95 0.6565,-14.85 0.7714,-22 0.1149,-7.15 0.5836,-13.58405 1.0417,-14.29789 0.458,-0.71383 0.5055,-2.06383 0.1054,-3 -1.1408,-2.66909 -1.434,-5.24047 -1.3343,-11.70211 0.051,-3.3 0.1582,-13.9875 0.2385,-23.75 0.08,-9.76249 0.5138,-17.74999 0.9634,-17.75 0.4495,0 0.5271,-0.91458 0.1723,-2.03239 -1.3621,-4.29173 -1.3013,-23.27596 0.089,-27.88943 0.8347,-2.76889 0.9988,-4.70796 0.4153,-4.90656 -0.5666,-0.19286 -0.4107,-1.431 0.3777,-3 0.7383,-1.46939 1.429,-4.69662 1.5349,-7.17162 0.5063,-11.83051 0.8561,-15.09789 2.4625,-23 0.9503,-4.675 2.381,-9.91801 3.1792,-11.65113 0.7982,-1.73312 1.4513,-3.78062 1.4513,-4.55 0,-0.76938 0.3956,-1.82637 0.8792,-2.34887 0.4835,-0.5225 1.4518,-2.75 2.1517,-4.95 1.7838,-5.60737 6.911,-15.5 8.0333,-15.5 0.5147,0 0.9358,-0.60526 0.9358,-1.34501 0,-0.73976 0.9,-2.1595 2,-3.15499 1.1,-0.99549 2,-2.30698 2,-2.91444 0,-0.60746 0.9,-1.66653 2,-2.35349 1.1,-0.68696 2,-1.67522 2,-2.19613 0,-1.46626 4.464,-7.50806 5.7368,-7.76449 0.624,-0.1257 3.5381,-2.6007 6.476,-5.5 6.4618,-6.37656 10.7939,-9.77145 12.4696,-9.77145 0.6862,0 1.7361,-0.9126 2.3331,-2.02801 0.5969,-1.1154 1.4458,-1.80525 1.8863,-1.533 0.4405,0.27226 3.4554,0.003 6.6998,-0.59841 7.9475,-1.47315 15.9272,0.16708 20.4478,4.20308 1.8212,1.62599 3.5832,2.95634 3.9156,2.95634 0.3324,0 1.4286,1.4625 2.4361,3.25 1.0075,1.7875 4.1788,5.5 7.0474,8.25 2.8685,2.75 5.8917,6.35 6.7181,8 0.8265,1.65 2.7022,5.31632 4.1683,8.14738 1.4661,2.83106 2.6656,5.64865 2.6656,6.26131 0,0.61266 1.8,3.75093 4,6.97393 2.2,3.223 4,6.36791 4,6.98869 0,0.62078 0.675,1.12869 1.5,1.12869 0.825,0 1.5056,0.3375 1.5125,0.75 0.01,0.4125 1.8068,2.68205 4,5.04346 2.1931,2.3614 3.9875,4.92234 3.9875,5.69098 0,0.76864 0.3919,1.63972 0.8708,1.93573 1.3293,0.82151 2.2529,6.72104 1.2483,7.97299 -0.4885,0.60876 -1.2009,2.56934 -1.5831,4.35684 -0.5517,2.58015 -1.1938,3.25 -3.1155,3.25 -1.3313,0 -2.4212,0.3375 -2.422,0.75 -8e-4,0.4125 -1.9097,0.88138 -4.2419,1.04196 -2.3323,0.16058 -4.6716,0.72308 -5.1986,1.25 -0.5269,0.52692 -2.4164,0.95804 -4.199,0.95804 -1.7825,0 -3.5191,0.45 -3.859,1 -0.9688,1.56762 -3.5,1.17011 -3.5,-0.54966 0,-2.14224 -2.9789,-7.70975 -4.8641,-9.09079 -1.2702,-0.93052 -1.3448,-1.60572 -0.4052,-3.66794 0.9508,-2.08679 0.699,-3.98025 -1.4445,-10.85955 -1.4279,-4.58263 -3.0095,-8.60409 -3.5148,-8.93657 -0.5052,-0.33248 -1.3546,-2.5448 -1.8874,-4.91627 -0.5328,-2.37147 -2.2997,-5.8276 -3.9264,-7.68029 -1.6267,-1.85269 -2.9576,-4.03248 -2.9576,-4.84398 0,-0.8115 -1.4904,-3.60835 -3.312,-6.21521 -1.8216,-2.60686 -3.6239,-5.56996 -4.0051,-6.58468 -0.3811,-1.01472 -1.5907,-2.0797 -2.688,-2.36663 -1.2893,-0.33717 -1.9949,-1.36471 -1.9949,-2.90506 0,-1.31085 -0.4359,-2.38337 -0.9686,-2.38337 -0.5328,0 -0.7404,0.59485 -0.4614,1.32188 0.5166,1.34627 -3.3841,3.67812 -6.1528,3.67812 -0.8188,0 -2.6186,1.0125 -3.9995,2.25 -4.4061,3.94833 -11.3832,11.22744 -11.4008,11.89424 -0.01,0.35434 -1.4333,2.15434 -3.1644,4 -1.7311,1.84567 -3.765,4.82504 -4.5197,6.62083 -0.7547,1.79579 -2.3759,4.41576 -3.6025,5.82215 -3.7464,4.29538 -7.7526,12.48393 -10.2313,20.91278 -0.9705,3.3 -2.385,7.575 -3.1435,9.5 -0.7585,1.925 -1.4636,5.975 -1.5668,9 -0.1033,3.025 -0.5629,5.76076 -1.0213,6.07946 -0.4585,0.3187 -0.8448,2.7937 -0.8585,5.5 -0.014,2.7063 -0.5083,7.39554 -1.0991,10.42054 -0.5909,3.025 -1.1581,7.525 -1.2604,10 -0.1024,2.475 -0.5432,5.74334 -0.9795,7.26299 -0.5069,1.76578 -0.367,3.2766 0.3878,4.18607 0.8785,1.05845 0.8961,1.95555 0.069,3.50112 -0.7447,1.39148 -0.824,3.66299 -0.2401,6.87539 0.4795,2.63855 0.5553,5.66971 0.1683,6.7359 -0.387,1.06619 -0.3089,2.69872 0.1735,3.62784 0.5163,0.99451 0.495,1.92547 -0.052,2.26349 -0.5594,0.34572 -0.5764,1.80383 -0.043,3.66471 0.4875,1.6998 0.8553,6.83235 0.8174,11.40568 -0.038,4.57333 0.2173,8.77843 0.5672,9.34468 0.35,0.56625 0.1326,3.02986 -0.483,5.47469 -0.7965,3.16317 -0.8123,5.01878 -0.055,6.43411 0.5855,1.09392 1.1386,5.75418 1.2291,10.35614 0.091,4.60195 0.6753,9.94219 1.2993,11.86719 1.0989,3.39023 1.2662,26.30996 0.2627,36 -2.8282,27.3105 -3.3639,33.63815 -2.9409,34.74038 0.2712,0.7068 -0.038,1.92559 -0.6882,2.70843 -0.7644,0.9211 -0.8644,2.06341 -0.2835,3.23727 0.4938,0.99767 0.77,3.14187 0.6139,4.76497 -0.1562,1.6232 0.074,3.4232 0.5106,4 0.437,0.5769 1.3892,4.3114 2.116,8.2989 0.7267,3.9875 1.6992,7.25 2.161,7.25 0.4617,0 0.8494,1.0125 0.8615,2.25 0.034,3.5285 3.2887,9.8319 7.7178,14.9493 2.2303,2.577 4.2138,5.0675 4.4077,5.5345 0.6037,1.4539 7.4675,6.2659 8.9469,6.2724 0.7731,0 2.6128,0.636 4.0883,1.4058 6.2213,3.2457 14.0901,3.5611 25.7889,1.0334 7.7494,-1.6744 8.1434,-1.9043 14.4389,-8.4253 3.7221,-3.8555 6.7343,-7.9396 7.0892,-9.612 0.3394,-1.5994 1.2365,-5.1581 1.9936,-7.9081 1.3714,-4.9812 1.3198,-19.9147 -0.095,-27.5 -0.8057,-4.31957 -0.9056,-30.82585 -0.1192,-31.61231 0.3142,-0.31418 2.1279,-0.008 4.0304,0.67961 2.6949,0.97447 3.4756,1.82337 3.5332,3.8418 0.1511,5.2921 0.3361,5.94267 2.1591,7.59246 1.0249,0.92752 1.644,2.25826 1.3758,2.9572 -0.2682,0.69894 0.8871,2.4276 2.5674,3.84148 1.6803,1.41388 3.0551,2.84862 3.0551,3.1883 0,0.33969 1.125,2.2732 2.5,4.2967 1.375,2.02349 2.5,4.28176 2.5,5.01836 0,1.3757 2.3526,4.1964 3.5,4.1964 0.3536,0 1.3192,0.6763 2.1457,1.5029 1.3372,1.3372 1.3363,1.5668 -0.01,2.0828 -0.8311,0.3189 -1.2803,1.1813 -0.9983,1.9163 0.2821,0.7351 -0.1779,2.3908 -1.0223,3.6794 -1.1202,1.7097 -1.3846,3.8261 -0.9782,7.8308 0.9122,8.9884 0.7012,10.305 -1.9961,12.4586 -1.7483,1.3958 -2.7524,3.4338 -3.2171,6.5292 -0.3715,2.475 -2.0195,6.8929 -3.6624,9.8174 -2.3225,4.1346 -4.0186,5.8029 -7.6249,7.5 -2.551,1.2005 -4.8631,2.4102 -5.1381,2.6883 -2.3541,2.3809 -8.2268,5.914 -11.5,6.9186 -2.2,0.6752 -4.675,1.4854 -5.5,1.8004 -0.825,0.315 -2.4695,0.4792 -3.6545,0.365 -1.185,-0.1143 -2.449,0.2688 -2.809,0.8513 -0.6636,1.0737 -3.802,1.4603 -4.6851,0.5771 z m -57.2472,-85.24722 c -0.3323,-0.33229 -0.5687,0.25834 -0.5253,1.3125 0.048,1.16495 0.285,1.4019 0.6042,0.60417 0.2889,-0.72187 0.2534,-1.58438 -0.079,-1.91667 z m -5.6042,-5.89327 c 0,-1.88219 -1.6463,-1.74168 -2.393,0.20423 -1.0587,2.75898 -0.6972,3.73796 0.893,2.41821 0.825,-0.68469 1.5,-1.86479 1.5,-2.62244 z m 7.4626,-18.31704 c 0.3193,-0.51671 -0.3291,-0.87095 -1.441,-0.78719 -1.1119,0.0838 -2.0216,0.50652 -2.0216,0.93947 0,1.10577 2.7601,0.98438 3.4626,-0.15228 z m 171.1469,107.68943 c -0.4271,-1.5821 -2.9821,-3.411 -8.6084,-6.1618 -4.4006,-2.1516 -8.0011,-4.1888 -8.0011,-4.5272 0,-0.3384 -1.2375,-1.983 -2.75,-3.6548 -3.2492,-3.5913 -3.3499,-4.3259 -3.3463,-24.4062 0.01,-26.7327 0.2683,-33.29614 1.6252,-40.49995 1.2928,-6.86308 1.3447,-13.95976 0.1111,-15.19336 -0.3425,-0.34244 -0.2239,-1.11403 0.2634,-1.71463 0.4874,-0.60061 1.1575,-4.91701 1.4892,-9.59201 0.3316,-4.675 0.7799,-10.3 0.996,-12.5 0.2162,-2.2 0.702,-8.275 1.0797,-13.5 1.1704,-16.19199 1.6829,-19.43608 3.3847,-21.42189 0.9059,-1.05705 1.0845,-1.59299 0.397,-1.19099 -0.8424,0.49256 -1.2816,-0.0221 -1.3469,-1.5781 -0.1464,-3.48793 0.2055,-18.18309 0.6778,-28.30902 0.2309,-4.95 0.3329,-12.15 0.2267,-16 -0.3805,-13.78883 -0.2539,-21.1439 0.525,-30.5 0.9359,-11.24131 3.0469,-26.5 3.6663,-26.5 0.083,0 0.2,-2.3625 0.2587,-5.25 0.059,-2.8875 0.3624,-5.25 0.6746,-5.25 0.3123,0 0.6218,-1.6875 0.6878,-3.75 0.1758,-5.49063 1.5136,-12.21451 2.5587,-12.86047 0.4999,-0.30894 1.6689,0.0395 2.5978,0.77438 1.5764,1.24707 1.5817,1.16775 0.08,-1.19039 -1.4438,-2.26665 -1.4623,-3.19225 -0.1795,-9 0.7863,-3.56044 1.4361,-7.7032 1.4439,-9.20614 0.01,-1.50295 0.4339,-2.99201 0.9469,-3.30902 0.5129,-0.31702 0.9326,-1.67484 0.9326,-3.01738 0,-1.34254 0.3375,-2.44237 0.75,-2.44408 0.4125,-0.002 0.7354,-3.7142 0.7175,-8.25 -0.018,-4.53579 0.5814,-10.0469 1.3317,-12.2469 0.7503,-2.2 1.3743,-6.25 1.3866,-9 0.012,-2.75 0.4807,-5.5625 1.0407,-6.25 0.7346,-0.90166 0.5808,-1.25 -0.552,-1.25 -1.2563,0 -1.3974,-0.55008 -0.7052,-2.75 0.476,-1.5125 1.1558,-5.45 1.5107,-8.75 0.355,-3.3 0.8703,-8.025 1.1452,-10.5 0.2749,-2.475 0.5842,-7.94773 0.6873,-12.16162 0.1031,-4.21389 0.4348,-7.9112 0.7371,-8.21626 0.3023,-0.30505 0.4171,-4.03218 0.2551,-8.2825 -0.1963,-5.14915 0.099,-7.97133 0.8861,-8.45752 0.8393,-0.51875 0.8755,-1.11303 0.125,-2.05588 -1.0405,-1.30716 -1.0152,-3.54854 0.2635,-23.32622 0.7464,-11.54526 0.7858,-12.93488 0.4822,-17 -0.3401,-4.55217 1.0363,-44.84915 1.5608,-45.69781 1.8354,-2.96987 2.4867,-104.75388 0.7537,-117.80219 -1.3567,-10.21491 -1.1345,-18.60459 0.4834,-18.25 0.6273,0.1375 1.1406,-0.425 1.1406,-1.25 0,-1.69757 1.1383,-1.95201 2.55,-0.57001 1.703,1.66711 9.3477,3.87699 9.7049,2.80541 0.1839,-0.55179 1.0697,-0.26799 1.9683,0.63067 0.8987,0.89866 2.1161,1.63393 2.7054,1.63393 1.3807,0 1.3525,0.39156 -0.3157,4.38397 -2.5943,6.20921 -3.8868,21.74586 -2.0554,24.70908 0.3687,0.59662 0.8522,5.65726 1.0745,11.24586 0.2222,5.5886 0.6287,10.78063 0.9033,11.53784 0.2745,0.75721 -0.014,1.99471 -0.6405,2.75 -0.6268,0.75529 -0.7144,1.37325 -0.1945,1.37325 0.5198,0 0.9766,1.98977 1.015,4.42171 0.038,2.43194 0.4307,5.00552 0.8717,5.71907 1.4614,2.36466 2.5306,41.26968 1.3208,48.06066 -0.5441,3.05403 -0.4414,5.83793 0.293,7.94477 0.7594,2.17839 0.7935,3.35569 0.1038,3.58558 -0.5845,0.19485 -0.8707,2.44856 -0.6644,5.23251 0.2685,3.6237 -0.077,5.32997 -1.3354,6.58804 -1.5971,1.59706 -1.5958,1.87551 0.021,4.69308 1.287,2.24255 1.4395,3.3321 0.6067,4.33555 -0.6118,0.73715 -1.1435,3.40548 -1.1817,5.92963 -0.05,3.2864 -0.563,4.85354 -1.808,5.51985 -2.146,1.1485 -3.1631,9.76036 -1.2038,10.19338 0.9526,0.21054 0.8818,0.98113 -0.298,3.24276 -1.2582,2.41214 -1.3196,3.39232 -0.3283,5.2445 1.1769,2.19911 1.5708,9.00979 0.8323,14.39145 -0.2819,2.0542 -0.7838,2.49095 -2.3822,2.07295 -1.9674,-0.51447 -1.9757,-0.45421 -0.2941,2.11228 2.2672,3.46026 2.2632,3.47373 -1.519,5.12779 -1.7875,0.78171 -2.575,1.46489 -1.75,1.51818 1.3333,0.0861 1.3333,0.21357 0,1.14708 -1.1637,0.81475 -0.9791,0.90308 0.8234,0.39399 3.1353,-0.88549 5.3602,2.00619 4.6747,6.07561 -0.2826,1.67773 -0.695,6.77495 -0.9165,11.32716 -0.4203,8.64067 -0.552,9.0997 -2.74,9.54641 -2.4013,0.49029 -4.8416,1.77269 -4.8416,2.54433 0,0.41488 1.0746,0.54892 2.3879,0.29785 1.3134,-0.25106 3.3096,0.0367 4.436,0.63958 1.8723,1.00205 2.0234,1.88936 1.7608,10.34516 -0.1579,5.087 -0.4497,9.69909 -0.6484,10.24909 -0.1986,0.55 0.1733,1.96226 0.8267,3.13835 0.7959,1.43273 1.0535,5.86105 0.7805,13.41978 -0.492,13.62692 -1.5001,29.98159 -2.1846,35.44187 -0.2758,2.2 -0.4435,4.45 -0.3727,5 0.7064,5.48422 0.4589,11.87794 -0.6185,15.97987 -0.7333,2.79185 -0.9289,5.35895 -0.4452,5.84264 0.9933,0.99328 5.0775,-0.90319 5.0775,-2.35769 0,-0.53065 0.6373,-0.96482 1.4161,-0.96482 0.7789,0 3.3465,-1.8 5.7058,-4 2.3593,-2.2 5.022,-4 5.9172,-4 0.8952,0 2.9401,-1.3375 4.5442,-2.97222 1.6042,-1.63472 3.6561,-2.98472 4.5597,-3 0.9037,-0.0153 1.8693,-0.61752 2.1459,-1.33831 0.2766,-0.72078 2.4623,-1.89226 4.857,-2.60327 2.3948,-0.71101 4.8883,-1.72791 5.5413,-2.25978 1.7425,-1.41943 9.3097,-1.77321 9.3281,-0.43611 0.01,0.69735 0.3108,0.64427 0.8106,-0.14284 0.884,-1.39223 5.6083,-1.13293 8.6826,0.47657 1.0953,0.57344 3.3415,1.65115 4.9915,2.39491 2.7425,1.23624 8.2884,4.66947 9.5,5.88105 1.1944,1.19442 5.0983,3 6.4864,3 0.8325,0 1.5136,0.6178 1.5136,1.37288 0,1.76866 4.027,10.95938 5.1124,11.66786 0.4557,0.2974 2.1923,3.84823 3.8593,7.89071 1.667,4.04249 3.6383,7.84916 4.3806,8.45927 0.7424,0.6101 2.3529,4.03428 3.5791,7.60928 1.2261,3.575 2.7128,7.39295 3.3037,8.48433 1.8977,3.50444 3.347,17.41196 2.6544,25.47085 -0.3668,4.26855 -0.468,11.98736 -0.2249,17.15291 0.5349,11.36506 0.4657,21.66573 -0.1908,28.39191 -0.2684,2.75 -0.6961,7.86497 -0.9505,11.36661 -0.2544,3.50163 -0.6893,7.10163 -0.9664,8 -0.2771,0.89836 -0.7475,7.48339 -1.0452,14.63339 -0.2977,7.15 -0.7698,13.72397 -1.0491,14.60882 -0.2793,0.88485 0.183,2.18205 1.0272,2.88268 1.0739,0.89133 1.2297,1.6416 0.5185,2.49849 -0.559,0.67354 -0.9611,5.22634 -0.8935,10.11732 0.067,4.89098 -0.1774,10.69269 -0.5444,12.89269 -2.2117,13.25993 -2.1767,24.57252 0.08,25.84056 1.301,0.73105 1.2657,1.09486 -0.2705,2.79238 -1.346,1.48733 -1.7879,3.78602 -1.8567,9.65944 -0.05,4.2985 -0.7071,9.03457 -1.485,10.70757 -0.7672,1.65 -1.5174,4.35 -1.6673,6 -1.0781,11.8689 -1.1576,17.0519 -0.2778,18.112 0.6293,0.7582 0.6483,1.43 0.051,1.7992 -0.5243,0.3241 -0.7281,2.2766 -0.4528,4.339 0.2753,2.0624 -0.1952,7.1057 -1.0455,11.2073 -0.964,4.6502 -1.1972,7.8777 -0.6195,8.5738 0.5712,0.6883 0.5559,1.487 -0.04,2.0829 -0.5316,0.5317 -1.2341,3.1985 -1.5611,5.9262 -0.9246,7.7124 -0.5894,7.4467 -7.2705,5.7638 -5.4242,-1.3664 -6.249,-1.9396 -8.8579,-6.1554 -4.2816,-6.9188 -5.7074,-14.2508 -4.8215,-24.794 0.4092,-4.8701 1.1007,-14.0298 1.5366,-20.3548 1.0416,-15.1132 1.7608,-22.72288 2.5518,-26.99995 0.356,-1.925 0.8295,-7.325 1.0522,-12 0.3996,-8.38924 1.7696,-33.03201 2.9187,-52.5 0.3246,-5.5 0.8023,-15.175 1.0615,-21.5 0.9148,-22.3263 1.5869,-32.54103 2.3849,-36.25 0.4438,-2.0625 0.5172,-3.75192 0.1632,-3.75426 -0.354,-0.002 -0.7931,-7.98984 -0.9758,-17.75 -0.2277,-12.17134 -0.752,-18.60679 -1.6689,-20.48684 -0.7352,-1.5076 -0.9474,-2.98178 -0.4714,-3.27594 0.4759,-0.29417 0.2488,-2.28249 -0.5049,-4.41849 -0.7536,-2.13601 -1.1332,-4.12059 -0.8437,-4.41018 0.7413,-0.74122 -3.3918,-13.35487 -5.9486,-18.15429 -2.0121,-3.77714 -2.7566,-4.87351 -5.2865,-7.7847 -0.5809,-0.66842 -1.9154,-2.6778 -2.9656,-4.4653 -1.2697,-2.16094 -2.675,-3.25 -4.1939,-3.25 -1.3639,0 -2.2844,-0.60442 -2.2844,-1.5 0,-0.825 -0.45,-1.5 -1,-1.5 -0.55,0 -1,-0.6401 -1,-1.42245 0,-3.72872 -17.9474,-4.66427 -20.6102,-1.07434 -0.6107,0.82323 -1.7948,1.49679 -2.6314,1.49679 -2.5064,0 -7.8524,6.1286 -7.1837,8.2354 0.4578,1.44225 -0.3024,2.21777 -3.4844,3.55465 -2.2385,0.94047 -4.0745,2.28657 -4.0801,2.99133 -0.01,0.70477 -0.7215,1.55432 -1.5908,1.88791 -1.0052,0.38574 -1.3879,1.34319 -1.0513,2.63027 0.5108,1.95317 -3.946,9.63149 -5.6181,9.67909 -1.6395,0.0467 -4.9836,4.38533 -5.1128,6.63345 -0.075,1.31257 -0.4259,2.38681 -0.7788,2.38719 -1.3066,0.001 -2.1422,5.81033 -2.4454,17.00071 -0.4856,17.91732 -1.1138,23.73473 -2.8274,26.18125 -0.8721,1.24507 -1.5856,3.54019 -1.5856,5.10027 0,1.62829 -0.4241,2.57438 -0.9957,2.22111 -0.5477,-0.33847 -1.4961,0.64747 -2.1076,2.19098 -0.6116,1.54352 -1.4549,3.49394 -1.8741,4.33427 -0.4191,0.84033 -0.582,5.34033 -0.3618,10 1.0182,21.54671 0.818,40.69023 -0.4413,42.20766 -1.0449,1.25896 -0.9873,1.63958 0.3239,2.14275 1.0322,0.39608 1.3812,1.28383 0.9897,2.51733 -0.5476,1.72545 -1.647,20.07969 -1.56,26.04266 0.02,1.34105 -0.4265,2.72392 -0.9914,3.07305 -0.5824,0.35995 -1.1973,6.24975 -1.4201,13.60404 -0.4145,13.67855 -1.2623,20.38463 -2.577,20.38463 -0.436,0 -0.5534,3.42879 -0.2608,7.61952 0.2926,4.19073 0,11.50323 -0.6411,16.25003 -0.6452,4.7467 -1.3585,10.6554 -1.5851,13.1304 -0.4215,4.6044 -1.6051,34.5807 -1.5355,38.8896 0.034,2.1043 -2.2969,4.9891 -4.1037,5.0786 -0.3529,0.018 -0.9149,-0.9807 -1.2489,-2.2182 z m -8.6095,-193.24995 c 1.0521,-1.26769 0.8436,-1.5 -1.3462,-1.5 -1.8923,0 -2.4358,0.40451 -2.0154,1.5 0.3166,0.825 0.9223,1.5 1.3461,1.5 0.4239,0 1.3308,-0.675 2.0155,-1.5 z m 31,-49.5 c 0,-0.55 -0.45,-1 -1,-1 -0.55,0 -1,0.45 -1,1 0,0.55 0.45,1 1,1 0.55,0 1,-0.45 1,-1 z m -22,-46.55902 c 0,-0.24254 -0.45,-0.44098 -1,-0.44098 -0.55,0 -1,0.47656 -1,1.05902 0,0.58246 0.45,0.7809 1,0.44098 0.55,-0.33992 1,-0.81648 1,-1.05902 z m 12,-99 c 0,-0.24254 -0.45,-0.44098 -1,-0.44098 -0.55,0 -1,0.47656 -1,1.05902 0,0.58246 0.45,0.7809 1,0.44098 0.55,-0.33992 1,-0.81648 1,-1.05902 z m 10.6042,-35.17015 c -1.0165,-1.01651 -1.8553,0.51389 -1.0213,1.86338 0.6301,1.01942 0.8656,1.02021 1.2044,0.004 0.2315,-0.69479 0.1492,-1.53513 -0.1831,-1.86742 z m 1.8002,-17.88217 c 0.4525,-1.17937 0.1912,-1.44745 -0.9748,-1 -0.8763,0.33624 -1.8079,0.61134 -2.0704,0.61134 -0.2625,0 -0.1991,0.45 0.1408,1 0.9173,1.48419 2.2042,1.21331 2.9044,-0.61134 z m 1.0956,-31.38866 c -0.3399,-0.55 -1.2665,-1 -2.059,-1 -0.7926,0 -1.441,0.45 -1.441,1 0,0.55 0.9266,1 2.059,1 1.1325,0 1.7809,-0.45 1.441,-1 z m 3.5,-59.5 c 0,-0.825 -0.45,-1.5 -1,-1.5 -0.55,0 -1,0.675 -1,1.5 0,0.825 0.45,1.5 1,1.5 0.55,0 1,-0.675 1,-1.5 z m -1,-58.5 c 0,-0.55 -0.45,-1 -1,-1 -0.55,0 -1,0.45 -1,1 0,0.55 0.45,1 1,1 0.55,0 1,-0.45 1,-1 z M 313.1145,1069.7233 c 0.084,-1.1119 0.5065,-2.0217 0.9395,-2.0217 1.1058,0 0.9844,2.7601 -0.1523,3.4626 -0.5167,0.3194 -0.8709,-0.3291 -0.7872,-1.4409 z m 1136.2346,-5.2975 c -5.9698,-3.1726 -12.8401,-9.3075 -17.4149,-15.5509 -3.31,-4.5172 -6.7941,-15.3373 -8.6475,-26.8554 -0.8541,-5.3075 -2.0416,-10.5632 -2.639,-11.6793 -0.5973,-1.1162 -1.2816,-5.8732 -1.5206,-10.57108 -0.239,-4.69793 -0.9062,-9.10998 -1.4827,-9.80458 -0.6129,-0.73857 -0.6513,-1.26289 -0.092,-1.26289 0.5257,0 0.9966,-0.5625 1.0465,-1.25 0.05,-0.6875 0.8472,-6.425 1.7718,-12.75 0.9246,-6.325 1.8381,-13.3 2.03,-15.5 0.1919,-2.2 0.658,-5.35 1.0357,-7 0.3778,-1.65 0.8325,-12.9 1.0105,-25 0.9261,-62.97108 2.0807,-85.71053 4.9886,-98.24895 0.8146,-3.51279 1.6722,-11.24059 1.9057,-17.1729 0.2335,-5.9323 0.8806,-12.76424 1.438,-15.18208 0.5574,-2.41784 1.0244,-8.24357 1.0379,-12.94607 0.013,-4.7025 0.4993,-9.02491 1.0798,-9.60536 1.629,-1.62909 0.049,-6.0822 -2.3901,-6.7365 -1.1909,-0.31946 -3.8528,-0.58698 -5.9153,-0.59449 -2.0625,-0.008 -3.75,-0.46365 -3.75,-1.01365 0,-0.55 -0.8734,-1 -1.941,-1 -1.0675,0 -2.2191,0.45 -2.559,1 -0.3399,0.55 -1.9718,1 -3.6264,1 -2.4104,0 -2.8978,0.34784 -2.452,1.75 0.5015,1.5771 -0.2294,1.73067 -7.3968,1.55436 -4.3742,-0.1076 -8.8397,-0.6701 -9.9232,-1.25 -1.0836,-0.5799 -2.9125,-1.05436 -4.0644,-1.05436 -2.5949,0 -13.4237,-5.38652 -15.9921,-7.95486 -1.1721,-1.17219 -1.6895,-2.68904 -1.3543,-3.97093 0.4221,-1.61387 0.075,-2.07421 -1.5627,-2.07421 -2.8072,0 -5.876,-2.71974 -7.8985,-7 -0.9095,-1.925 -2.2333,-4.09464 -2.9417,-4.82143 -0.7083,-0.72678 -1.2879,-1.70896 -1.2879,-2.18261 0,-1.59437 4.0668,-2.18541 5.7016,-0.82864 0.8831,0.73291 2.4453,1.19032 3.4715,1.01647 1.7885,-0.303 12.7097,4.48327 13.9023,6.09277 0.5935,0.80085 1.5644,0.85012 13.4246,0.68117 13.0346,-0.18567 21.9928,0.26309 23.75,1.18977 1.1866,0.62577 1.75,0.55307 1.75,-0.22582 0,-0.76769 1.0779,-0.92488 3.25,-0.47393 3.0088,0.62468 6.4641,0.69857 11.1365,0.23814 2.227,-0.21945 4.9976,-9.32368 4.3126,-14.17143 -0.232,-1.64205 -0.034,-3.77955 0.4395,-4.75 0.4738,-0.97045 1.2446,-2.55196 1.7129,-3.51446 0.4683,-0.9625 0.5258,-2.65 0.1278,-3.75 -0.4218,-1.16562 -0.1236,-3.18002 0.7148,-4.8285 1.4843,-2.91863 2.4443,-17.3429 2.3986,-36.0374 -0.017,-6.75266 0.4383,-10.76032 1.4416,-12.70034 0.8061,-1.55894 1.4657,-4.934 1.4657,-7.50012 0,-3.75736 0.6814,-5.59392 3.5,-9.43364 1.925,-2.62237 3.5,-5.22202 3.5,-5.77699 0,-1.84968 2.9115,-2.15795 6.4434,-0.68222 1.9208,0.80256 4.1867,1.45921 5.0354,1.45921 0.8486,0 3.4506,0.86067 5.7821,1.91261 2.3315,1.05193 5.9268,2.43689 7.9895,3.0777 3.8597,1.199 4.1836,1.77466 5.07,9.00969 0.3136,2.56013 -0.4103,5.11121 -2.6958,9.5 -1.7185,3.3 -3.1724,6.675 -3.2309,7.5 -0.1244,1.75475 -1.1561,4.78154 -2.4667,7.23643 -0.5098,0.95504 -0.927,2.61598 -0.927,3.69098 0,1.07501 -0.45,2.23267 -1,2.57259 -0.55,0.33992 -1,2.19606 -1,4.12476 0,1.9287 -0.4649,4.37535 -1.0331,5.43701 -1.0427,1.94841 -1.8074,7.73991 -2.3857,18.06859 -0.1734,3.09669 -0.6681,6.20125 -1.0993,6.899 -0.7667,1.24042 -1.3645,5.10166 -1.8289,11.81289 -0.1333,1.92608 -0.9562,3.74794 -1.9422,4.29969 -2.073,1.16013 -2.2478,2.85806 -0.2941,2.85806 0.7791,0 1.5708,0.46239 1.7591,1.02753 0.598,1.79382 29.5243,0.61539 31.4125,-1.27971 0.4122,-0.4137 1.5117,-0.0623 2.4434,0.78087 0.9317,0.84318 4.1182,1.76822 7.0812,2.05564 9.9794,0.96807 11.8871,1.45273 11.8871,3.02 0,0.83254 0.45,1.23559 1,0.89567 0.55,-0.33992 1,0.2782 1,1.3736 0,1.11337 -0.8819,2.27154 -2,2.6264 -1.1,0.34913 -2,0.98238 -2,1.40723 0,0.42486 -3.2625,1.34689 -7.25,2.04897 -3.9875,0.70208 -7.7862,1.70741 -8.4415,2.23407 -1.1049,0.88795 -21.6459,2.77305 -34.2953,3.14737 -4.8697,0.1441 -5.6292,0.45954 -6.7531,2.80494 -0.6964,1.45342 -1.4414,6.54246 -1.6555,11.30897 -0.2141,4.76652 -0.6339,8.91112 -0.9331,9.21024 -0.2991,0.29912 -0.1337,1.62259 0.3676,2.94103 0.5724,1.50567 0.5281,3.40539 -0.1193,5.10815 -0.5669,1.49103 -0.793,3.6583 -0.5023,4.81616 0.2906,1.15786 -0.1559,3.082 -0.9921,4.27587 -1.2485,1.7825 -1.2668,2.07337 -0.1024,1.62656 1.5135,-0.58079 1.5181,-0.23456 0.2257,17.07044 -1.0136,13.57247 -1.3836,16.46965 -2.5569,20.02498 -0.6237,1.88976 -0.8745,3.85585 -0.5573,4.3691 0.3172,0.51325 -0.1423,4.00955 -1.0212,7.76955 -0.8789,3.76 -1.735,7.96137 -1.9025,9.33637 -1.5297,12.56223 -1.8163,15.89924 -1.5887,18.5 0.1443,1.65 0.6709,3.15 1.1702,3.33333 1.3661,0.50168 1.0907,9.58371 -0.3339,11.00831 -0.9889,0.98886 -0.9613,1.4149 0.1353,2.09267 0.9144,0.56511 1.1554,1.73389 0.7174,3.47888 -0.3627,1.44531 -0.1771,3.52924 0.4125,4.63094 0.8108,1.51503 0.7291,2.34606 -0.3356,3.41072 -1.5617,1.5617 -1.2979,9.52966 0.5103,15.41397 0.5752,1.87188 0.6501,3.64928 0.1685,4 -0.4768,0.34715 -0.9985,2.64147 -1.1594,5.09848 -0.1609,2.45702 -0.7843,4.77122 -1.3853,5.14267 -0.6905,0.42672 -0.8044,1.7273 -0.3095,3.5327 0.4309,1.57153 0.9105,4.43233 1.0659,6.35733 0.1554,1.925 0.4869,5.64304 0.7366,8.26231 0.2498,2.61927 0.034,5.02184 -0.4791,5.33903 -0.5439,0.33618 -0.4208,1.194 0.2952,2.05677 1.0106,1.21763 0.7125,1.89141 -1.6811,3.80001 -2.8972,2.31011 -2.9045,2.34379 -1.7293,7.94665 0.9454,4.50724 0.9006,7.21674 -0.2249,13.61868 -0.7728,4.39558 -1.8053,8.70705 -2.2944,9.581 -1.3298,2.3761 -0.1603,11.408 1.9676,15.1966 1.0281,1.8304 1.6213,3.7291 1.3182,4.2194 -0.303,0.4903 0.1704,2.5988 1.0521,4.6855 0.8817,2.0867 1.7339,6.2838 1.8939,9.3269 0.1599,3.0431 1.029,6.9605 1.9312,8.7052 2.2144,4.2821 6.1281,4.8978 21.1355,3.3254 6.6,-0.6916 13.8,-1.4275 16,-1.6354 18.9432,-1.79 23.5,-2.6958 23.5,-4.671 0,-0.6386 1.6468,-0.8032 4.3409,-0.4339 2.3875,0.3272 4.75,0.2217 5.25,-0.2345 1.7437,-1.5909 9.8241,-2.0035 12.3587,-0.631 1.3473,0.7295 2.9893,1.1193 3.6489,0.8662 1.49,-0.5718 2.6831,1.2681 3.0611,4.7203 0.408,3.7274 -3.4019,7.6281 -6.9096,7.0743 -0.4125,-0.065 -0.75,0.2779 -0.75,0.7624 0,0.4845 -3.2625,2.48 -7.25,4.4346 -5.2176,2.5575 -9.1204,3.7127 -13.9221,4.1207 -3.6697,0.3117 -7.2697,0.7692 -8,1.0165 -0.7304,0.2473 -3.5912,0.6701 -6.3575,0.9395 -2.7663,0.2694 -6.2831,0.9663 -7.8151,1.5488 -1.532,0.5825 -4.1358,1.059 -5.7861,1.059 -1.6504,0 -3.7594,0.4061 -4.6867,0.9024 -2.5288,1.3534 -14.0836,2.0666 -14.7964,0.9133 -0.3951,-0.6392 -0.997,-0.6047 -1.699,0.097 -2.1769,2.1769 -9.9408,1.1266 -16.1792,-2.1887 z m -94.8611,0.6917 c -6.9273,-1.6763 -21.5663,-8.3631 -23.5192,-10.7432 -0.7549,-0.92 -1.8799,-1.6768 -2.5,-1.6819 -0.6202,0 -3.3776,-1.9971 -6.1276,-4.4268 -4.3025,-3.8013 -5.2105,-4.2274 -6.5088,-3.0541 -1.4481,1.3087 -4.0123,2.0886 -10.4912,3.1908 -1.65,0.2807 -4.575,1.7089 -6.5,3.1737 -1.925,1.4649 -5.1844,3.7799 -7.2432,5.1445 -2.0587,1.3646 -3.7462,2.7829 -3.75,3.1517 0,0.3688 -1.3568,0.967 -3.0068,1.3294 -1.65,0.3624 -3,1.0475 -3,1.5223 0,0.4749 -2.6633,0.7098 -5.9185,0.522 -3.5663,-0.2058 -6.9164,0.1763 -8.4293,0.9612 -1.381,0.7164 -2.8049,1.0083 -3.1643,0.6486 -0.3593,-0.3597 -1.8639,-0.6794 -3.3434,-0.7105 -5.8147,-0.1219 -22.0826,-5.7913 -22.1268,-7.7112 -0.01,-0.4222 -1.4802,-2.2554 -3.2677,-4.0738 -6.4158,-6.5264 -10.0117,-11.0407 -11.3543,-14.254 -0.751,-1.7973 -1.81,-3.5426 -2.3534,-3.8784 -0.9502,-0.5873 -3.4036,-7.7377 -3.5127,-10.2378 -0.029,-0.6663 -0.6101,-1.7688 -1.2912,-2.45 -0.6811,-0.6811 -1.2384,-1.9041 -1.2384,-2.7179 0,-1.5492 -3.5604,-13.1742 -5.0904,-16.6205 -2.1005,-4.73117 -4.8848,-15.27902 -4.8967,-18.54995 -0.01,-1.9525 -0.4155,-3.9775 -0.9075,-4.5 -0.7808,-0.82909 -3.2897,-21.47212 -3.2755,-26.95 0.023,-8.79938 1.5728,-19.69016 3.647,-25.62713 1.491,-4.26737 2.2284,-8.09639 1.8875,-9.80071 -0.4617,-2.30883 -0.019,-3.18216 2.5381,-5.00274 1.7036,-1.21308 3.0975,-2.64427 3.0975,-3.18042 0,-1.9844 8.793,-12.57535 18.5,-22.28284 5.5,-5.50027 9.8875,-10.36176 9.75,-10.80332 -0.1375,-0.44156 0.564,-0.80284 1.5588,-0.80284 0.9949,0 4.4244,-1.575 7.6212,-3.5 3.1968,-1.925 6.6578,-3.5 7.6912,-3.5 1.0333,0 2.7788,-0.9 3.8788,-2 1.1,-1.1 3.0929,-2 4.4286,-2 1.3357,0 3.1035,-0.675 3.9285,-1.5 0.825,-0.825 1.9761,-1.5 2.5581,-1.5 0.5819,0 1.7473,-1.64972 2.5897,-3.66604 1.3495,-3.22974 1.6784,-3.46962 2.7634,-2.0156 1.7262,2.3131 5.4075,1.10958 6.1942,-2.02509 0.6059,-2.41414 0.711,-2.44626 2.5518,-0.78029 1.2839,1.16189 2.6762,1.5117 4.2028,1.05593 4.4538,-1.32966 20.6765,-1.69624 22.8799,-0.51701 1.6695,0.89349 2.4399,0.8398 3.5253,-0.24567 1.7515,-1.75144 2.4623,-12.73796 1.1411,-17.63679 -1.853,-6.87087 -5.7376,-45.94993 -5.8972,-59.32573 l -0.1152,-9.65629 -5.4614,-5.84371 c -3.0038,-3.21404 -6.0716,-7.19371 -6.8174,-8.84371 -0.7459,-1.65 -3.2244,-4.95823 -5.5079,-7.35162 l -4.1519,-4.35163 -7.7247,0.35163 c -7.5022,0.3415 -7.9156,0.49558 -14.3605,5.35162 -3.6498,2.75 -6.6565,5.59208 -6.6816,6.31574 -0.025,0.72366 -0.5831,2.29866 -1.24,3.5 -0.6569,1.20134 -1.2704,4.71511 -1.3632,7.80836 -0.093,3.09326 -0.4558,6.0886 -0.8067,6.65632 -0.3509,0.56772 -2.9211,1.34622 -5.7115,1.73001 -4.3352,0.59624 -5.3944,0.39647 -7.2774,-1.37251 -2.3166,-2.17634 -9.6367,-5.13792 -12.6993,-5.13792 -1.0267,0 -2.4869,-1.37495 -3.3963,-3.19789 -1.4229,-2.85215 -1.4308,-3.28999 -0.073,-4.04969 0.8372,-0.46849 1.5323,-1.61694 1.5448,-2.55211 0.013,-0.93517 2.4875,-4.37063 5.5,-7.63436 3.0125,-3.26373 5.4773,-6.24143 5.4773,-6.61712 0,-0.37568 1.8777,-1.92565 4.1726,-3.44437 2.295,-1.51872 5.26,-4.05352 6.5889,-5.63288 1.329,-1.57937 2.8131,-2.87158 3.2982,-2.87158 0.485,0 2.8075,-1.34699 5.1611,-2.99332 4.7948,-3.35395 16.555,-6.69306 26.9876,-7.66267 4.7976,-0.44588 6.7916,-0.29545 6.7916,0.51239 0,0.64995 1.5808,1.1436 3.6621,1.1436 3.8525,0 14.6146,2.96841 15.1525,4.17936 0.173,0.38956 0.964,0.45909 1.7577,0.15451 0.7937,-0.30457 2.5488,0.17071 3.9002,1.05618 1.3514,0.88547 3.0992,1.60995 3.8839,1.60995 1.9654,0 3.0316,3.93183 4.0359,14.88407 0.3219,3.51124 0.9884,6.88624 1.4811,7.5 0.4926,0.61376 1.2084,2.57843 1.5906,4.36593 0.3822,1.7875 1.1092,3.25 1.6155,3.25 0.5063,0 0.9205,1.10264 0.9205,2.45031 0,1.34767 0.5885,2.81017 1.3077,3.25 0.7192,0.43983 2.363,3.04969 3.6529,5.79969 1.9484,4.15403 2.3025,6.35355 2.0929,13 -0.3406,10.80351 -0.846,18.99434 -1.5427,25 -1.4699,12.67181 -2.1592,21.42221 -2.0679,26.25 0.055,2.8875 -0.2681,5.25 -0.7171,5.25 -0.449,0 -0.5254,1.55127 -0.1697,3.44728 1.1777,6.27758 1.1822,12.01315 0.012,15.05272 -0.9855,2.5597 -1.2441,4.77454 -0.6713,5.75 0.081,0.1375 0.3997,7.225 0.7088,15.75 0.3977,10.96813 0.9828,16.15785 2.0012,17.75 1.2658,1.97873 1.2555,2.25 -0.085,2.25 -1.3025,0 -1.4605,1.66604 -1.0858,11.44854 0.2411,6.2967 0.9167,12.34211 1.5012,13.43426 0.5845,1.09214 1.0615,3.2528 1.0601,4.80146 0,3.96971 3.1508,16.68357 4.3354,17.47338 0.6319,0.4213 0.5259,1.7693 -0.2949,3.7509 -0.9927,2.3965 -1.0136,3.41587 -0.093,4.52544 0.9288,1.11911 0.8583,1.93864 -0.3224,3.7491 -0.9139,1.40148 -1.5925,5.0827 -1.7174,9.31692 -0.1135,3.85 -1.0276,9.475 -2.0313,12.5 -1.0037,3.025 -1.836,6.48594 -1.8495,7.69098 -0.014,1.20504 -0.4746,2.4691 -1.0246,2.80902 -0.55,0.33992 -1,1.43638 -1,2.43657 0,1.0002 -0.67,2.37463 -1.489,3.05429 -0.8189,0.67967 -1.2301,1.65455 -0.9138,2.16642 0.3164,0.51187 -0.1236,1.9972 -0.9777,3.30077 -2.2136,3.3783 -2.3932,18.6535 -0.2858,24.3096 0.8745,2.3471 1.334,4.9346 1.0212,5.75 -0.3129,0.8153 -0.1832,1.4845 0.2881,1.4871 0.4714,0 2.6152,1.6195 4.7641,3.593 3.6057,3.3113 15.8287,8.4022 20.1735,8.4022 2.8916,0 7.4194,3.031 7.4194,4.9667 0,1.0534 0.45,2.1934 1,2.5333 0.55,0.34 1,1.4152 1,2.3895 0,1.3707 0.8482,1.7835 3.75,1.8251 5.4819,0.079 7.7115,0.7775 8.0529,2.5241 0.3328,1.7021 -4.7037,5.7613 -7.1483,5.7613 -0.8451,0 -1.8177,0.4549 -2.1613,1.0109 -0.3436,0.556 -1.8327,0.946 -3.309,0.8667 -1.4764,-0.079 -3.3593,0.103 -4.1843,0.4052 -0.825,0.3022 -4.1339,-0.088 -7.3532,-0.8669 z m -76.4635,-30.5367 c 0.9258,-0.01 2.2184,-0.6583 2.8724,-1.4463 0.6541,-0.7881 1.8091,-1.4329 2.5667,-1.4329 0.7577,0 1.3966,-0.5625 1.4199,-1.25 0.043,-1.2617 2.0383,-2.6954 12.2681,-8.8141 l 5.6148,-3.3584 -0.7126,-6.0387 c -0.7376,-6.2507 -0.7226,-10.2537 0.1187,-31.75529 0.4563,-11.65933 0.25,-13.73775 -2.481,-25 -1.6383,-6.7559 -2.9478,-13.38068 -2.9101,-14.72174 0.038,-1.34105 -0.4552,-2.76199 -1.0954,-3.15764 -0.8837,-0.54616 -0.8784,-1.40877 0.022,-3.58274 0.6523,-1.57485 1.1201,-5.10392 1.0396,-7.84236 -0.081,-2.73844 0.3703,-7.75301 1.002,-11.14348 0.6317,-3.39048 1.0642,-6.54048 0.9612,-7 -0.103,-0.45953 0.1006,-1.5105 0.4524,-2.3355 1.5357,-3.60129 3.4125,-18.28032 2.6594,-20.80021 -3.5717,-11.9515 -3.4191,-11.71868 -7.5089,-11.46133 -2.0843,0.13115 -4.5412,0.91865 -5.4598,1.75 -0.9187,0.83135 -2.1449,1.51154 -2.7249,1.51154 -0.5801,0 -1.3002,0.93914 -1.6004,2.08697 -0.3599,1.37625 -1.1659,1.95259 -2.3666,1.69236 -1.0015,-0.21704 -5.2664,1.31882 -9.4776,3.41302 -4.2112,2.09421 -8.1843,3.80765 -8.829,3.80765 -0.6447,0 -3.1972,2.025 -5.6722,4.5 -2.475,2.475 -4.9093,4.5 -5.4096,4.5 -1.3676,0 -4.9325,3.28731 -4.9325,4.54837 0,0.60714 -1.5902,2.41964 -3.5338,4.02776 -4.2658,3.52955 -7.1343,8.13789 -8.0268,12.89507 -0.3641,1.94084 -0.9989,3.5288 -1.4108,3.5288 -0.6159,0 -2.1363,8.81874 -2.155,12.5 -0.012,2.40303 0,14.18181 0.015,16 0.077,8.66954 1.2247,18.83511 2.46,21.79171 0.8167,1.95468 1.6186,5.2762 1.7818,7.38113 0.1633,2.10494 0.7576,4.14478 1.3208,4.53299 0.5632,0.38821 1.1082,2.18821 1.2112,4 0.2499,4.39839 1.279,9.83663 2.3264,12.29412 0.4689,1.1 1.1042,4.025 1.4119,6.5 0.3077,2.475 1.6793,6.75 3.0481,9.5 1.3688,2.75 2.5028,5.5625 2.52,6.25 0.017,0.6875 0.4464,1.25 0.9537,1.25 0.5074,0 1.4423,1.575 2.0776,3.5 1.0098,3.0596 1.5704,3.5 4.4551,3.5 1.815,0 3.8561,0.6701 4.5358,1.489 0.6796,0.819 1.6544,1.2302 2.1662,0.9139 0.5118,-0.3162 1.4733,-0.1294 2.1367,0.4152 1.653,1.3571 5.6954,2.0646 8.7062,1.5237 1.375,-0.247 3.2575,-0.4552 4.1833,-0.4626 z m -965.555,29.3284 c -0.2694,-0.4358 0.3791,-0.8578 1.441,-0.9378 1.0619,-0.08 1.9307,0.2766 1.9307,0.7924 0,1.1384 -2.6864,1.2542 -3.3717,0.1454 z M 502.3412,838.70165 c -0.3399,-0.55 -0.1415,-1 0.441,-1 0.5824,0 1.059,0.45 1.059,1 0,0.55 -0.1984,1 -0.441,1 -0.2425,0 -0.7191,-0.45 -1.059,-1 z m -178.3075,-119.5 c 0.082,-2.1905 0.6321,-3.5 1.4695,-3.5 1.4548,0 1.6427,1.26116 0.7077,4.75 -0.9288,3.46577 -2.3244,2.66452 -2.1772,-1.25 z m 252.8075,-1.5 c 0,-0.55 0.45,-1 1,-1 0.55,0 1,0.45 1,1 0,0.55 -0.45,1 -1,1 -0.55,0 -1,-0.45 -1,-1 z M 324.395,713.78878 c -1.0402,-1.68322 0.4312,-3.50208 1.7591,-2.17426 0.7828,0.78284 0.7828,1.39142 0,2.17426 -0.7829,0.78285 -1.2752,0.78285 -1.7591,0 z"
     id="path2987"
     style="fill:#333333" />
</svg>
